%TF.GenerationSoftware,KiCad,Pcbnew,8.0.2*%
%TF.CreationDate,2024-06-10T13:17:10+01:00*%
%TF.ProjectId,,58585858-5858-4585-9858-585858585858,rev?*%
%TF.SameCoordinates,Original*%
%TF.FileFunction,Copper,L2,Bot*%
%TF.FilePolarity,Positive*%
%FSLAX46Y46*%
G04 Gerber Fmt 4.6, Leading zero omitted, Abs format (unit mm)*
G04 Created by KiCad (PCBNEW 8.0.2) date 2024-06-10 13:17:10*
%MOMM*%
%LPD*%
G01*
G04 APERTURE LIST*
%TA.AperFunction,ComponentPad*%
%ADD10C,2.200000*%
%TD*%
%TA.AperFunction,ComponentPad*%
%ADD11O,1.200000X2.200000*%
%TD*%
%TA.AperFunction,ComponentPad*%
%ADD12O,2.200000X1.200000*%
%TD*%
G04 APERTURE END LIST*
D10*
%TO.P,REF\u002A\u002A,1*%
%TO.N,N/C*%
X103790000Y-60920000D03*
X105070000Y-63460000D03*
%TO.P,REF\u002A\u002A,2*%
X97440000Y-63460000D03*
X98720000Y-60920000D03*
%TD*%
D11*
%TO.P,REF\u002A\u002A,R*%
%TO.N,N/C*%
X190750000Y-45000000D03*
%TO.P,REF\u002A\u002A,RN*%
X193250000Y-45000000D03*
D12*
%TO.P,REF\u002A\u002A,S*%
X195750000Y-50000000D03*
D11*
%TO.P,REF\u002A\u002A,T*%
X200750000Y-45000000D03*
%TO.P,REF\u002A\u002A,TN*%
X198250000Y-45000000D03*
%TD*%
D10*
%TO.P,REF\u002A\u002A,1*%
%TO.N,N/C*%
X103790000Y-24920000D03*
X105070000Y-27460000D03*
%TO.P,REF\u002A\u002A,2*%
X97440000Y-27460000D03*
X98720000Y-24920000D03*
%TD*%
D11*
%TO.P,REF\u002A\u002A,R*%
%TO.N,N/C*%
X190750000Y-81000000D03*
%TO.P,REF\u002A\u002A,RN*%
X193250000Y-81000000D03*
D12*
%TO.P,REF\u002A\u002A,S*%
X195750000Y-86000000D03*
D11*
%TO.P,REF\u002A\u002A,T*%
X200750000Y-81000000D03*
%TO.P,REF\u002A\u002A,TN*%
X198250000Y-81000000D03*
%TD*%
%TO.P,REF\u002A\u002A,R*%
%TO.N,N/C*%
X127750000Y-45000000D03*
%TO.P,REF\u002A\u002A,RN*%
X130250000Y-45000000D03*
D12*
%TO.P,REF\u002A\u002A,S*%
X132750000Y-50000000D03*
D11*
%TO.P,REF\u002A\u002A,T*%
X137750000Y-45000000D03*
%TO.P,REF\u002A\u002A,TN*%
X135250000Y-45000000D03*
%TD*%
%TO.P,REF\u002A\u002A,R*%
%TO.N,N/C*%
X190750000Y-117000000D03*
%TO.P,REF\u002A\u002A,RN*%
X193250000Y-117000000D03*
D12*
%TO.P,REF\u002A\u002A,S*%
X195750000Y-122000000D03*
D11*
%TO.P,REF\u002A\u002A,T*%
X200750000Y-117000000D03*
%TO.P,REF\u002A\u002A,TN*%
X198250000Y-117000000D03*
%TD*%
D10*
%TO.P,REF\u002A\u002A,1*%
%TO.N,N/C*%
X103790000Y-96920000D03*
X105070000Y-99460000D03*
%TO.P,REF\u002A\u002A,2*%
X97440000Y-99460000D03*
X98720000Y-96920000D03*
%TD*%
%TO.P,REF\u002A\u002A,1*%
%TO.N,N/C*%
X198290000Y-60920000D03*
X199570000Y-63460000D03*
%TO.P,REF\u002A\u002A,2*%
X191940000Y-63460000D03*
X193220000Y-60920000D03*
%TD*%
D11*
%TO.P,REF\u002A\u002A,R*%
%TO.N,N/C*%
X127750000Y-81000000D03*
%TO.P,REF\u002A\u002A,RN*%
X130250000Y-81000000D03*
D12*
%TO.P,REF\u002A\u002A,S*%
X132750000Y-86000000D03*
D11*
%TO.P,REF\u002A\u002A,T*%
X137750000Y-81000000D03*
%TO.P,REF\u002A\u002A,TN*%
X135250000Y-81000000D03*
%TD*%
%TO.P,REF\u002A\u002A,R*%
%TO.N,N/C*%
X96250000Y-45000000D03*
%TO.P,REF\u002A\u002A,RN*%
X98750000Y-45000000D03*
D12*
%TO.P,REF\u002A\u002A,S*%
X101250000Y-50000000D03*
D11*
%TO.P,REF\u002A\u002A,T*%
X106250000Y-45000000D03*
%TO.P,REF\u002A\u002A,TN*%
X103750000Y-45000000D03*
%TD*%
D10*
%TO.P,REF\u002A\u002A,1*%
%TO.N,N/C*%
X166790000Y-24920000D03*
X168070000Y-27460000D03*
%TO.P,REF\u002A\u002A,2*%
X160440000Y-27460000D03*
X161720000Y-24920000D03*
%TD*%
%TO.P,REF\u002A\u002A,1*%
%TO.N,N/C*%
X166790000Y-60920000D03*
X168070000Y-63460000D03*
%TO.P,REF\u002A\u002A,2*%
X160440000Y-63460000D03*
X161720000Y-60920000D03*
%TD*%
D11*
%TO.P,REF\u002A\u002A,R*%
%TO.N,N/C*%
X96250000Y-117000000D03*
%TO.P,REF\u002A\u002A,RN*%
X98750000Y-117000000D03*
D12*
%TO.P,REF\u002A\u002A,S*%
X101250000Y-122000000D03*
D11*
%TO.P,REF\u002A\u002A,T*%
X106250000Y-117000000D03*
%TO.P,REF\u002A\u002A,TN*%
X103750000Y-117000000D03*
%TD*%
%TO.P,REF\u002A\u002A,R*%
%TO.N,N/C*%
X159250000Y-45000000D03*
%TO.P,REF\u002A\u002A,RN*%
X161750000Y-45000000D03*
D12*
%TO.P,REF\u002A\u002A,S*%
X164250000Y-50000000D03*
D11*
%TO.P,REF\u002A\u002A,T*%
X169250000Y-45000000D03*
%TO.P,REF\u002A\u002A,TN*%
X166750000Y-45000000D03*
%TD*%
D10*
%TO.P,REF\u002A\u002A,1*%
%TO.N,N/C*%
X135290000Y-60920000D03*
X136570000Y-63460000D03*
%TO.P,REF\u002A\u002A,2*%
X128940000Y-63460000D03*
X130220000Y-60920000D03*
%TD*%
%TO.P,REF\u002A\u002A,1*%
%TO.N,N/C*%
X135290000Y-96920000D03*
X136570000Y-99460000D03*
%TO.P,REF\u002A\u002A,2*%
X128940000Y-99460000D03*
X130220000Y-96920000D03*
%TD*%
%TO.P,REF\u002A\u002A,1*%
%TO.N,N/C*%
X166790000Y-96920000D03*
X168070000Y-99460000D03*
%TO.P,REF\u002A\u002A,2*%
X160440000Y-99460000D03*
X161720000Y-96920000D03*
%TD*%
%TO.P,REF\u002A\u002A,1*%
%TO.N,N/C*%
X198290000Y-96920000D03*
X199570000Y-99460000D03*
%TO.P,REF\u002A\u002A,2*%
X191940000Y-99460000D03*
X193220000Y-96920000D03*
%TD*%
D11*
%TO.P,REF\u002A\u002A,R*%
%TO.N,N/C*%
X159250000Y-117000000D03*
%TO.P,REF\u002A\u002A,RN*%
X161750000Y-117000000D03*
D12*
%TO.P,REF\u002A\u002A,S*%
X164250000Y-122000000D03*
D11*
%TO.P,REF\u002A\u002A,T*%
X169250000Y-117000000D03*
%TO.P,REF\u002A\u002A,TN*%
X166750000Y-117000000D03*
%TD*%
%TO.P,REF\u002A\u002A,R*%
%TO.N,N/C*%
X96250000Y-81000000D03*
%TO.P,REF\u002A\u002A,RN*%
X98750000Y-81000000D03*
D12*
%TO.P,REF\u002A\u002A,S*%
X101250000Y-86000000D03*
D11*
%TO.P,REF\u002A\u002A,T*%
X106250000Y-81000000D03*
%TO.P,REF\u002A\u002A,TN*%
X103750000Y-81000000D03*
%TD*%
%TO.P,REF\u002A\u002A,R*%
%TO.N,N/C*%
X127750000Y-117000000D03*
%TO.P,REF\u002A\u002A,RN*%
X130250000Y-117000000D03*
D12*
%TO.P,REF\u002A\u002A,S*%
X132750000Y-122000000D03*
D11*
%TO.P,REF\u002A\u002A,T*%
X137750000Y-117000000D03*
%TO.P,REF\u002A\u002A,TN*%
X135250000Y-117000000D03*
%TD*%
D10*
%TO.P,REF\u002A\u002A,1*%
%TO.N,N/C*%
X198290000Y-24920000D03*
X199570000Y-27460000D03*
%TO.P,REF\u002A\u002A,2*%
X191940000Y-27460000D03*
X193220000Y-24920000D03*
%TD*%
%TO.P,REF\u002A\u002A,1*%
%TO.N,N/C*%
X135290000Y-24920000D03*
X136570000Y-27460000D03*
%TO.P,REF\u002A\u002A,2*%
X128940000Y-27460000D03*
X130220000Y-24920000D03*
%TD*%
D11*
%TO.P,REF\u002A\u002A,R*%
%TO.N,N/C*%
X159250000Y-81000000D03*
%TO.P,REF\u002A\u002A,RN*%
X161750000Y-81000000D03*
D12*
%TO.P,REF\u002A\u002A,S*%
X164250000Y-86000000D03*
D11*
%TO.P,REF\u002A\u002A,T*%
X169250000Y-81000000D03*
%TO.P,REF\u002A\u002A,TN*%
X166750000Y-81000000D03*
%TD*%
M02*
