%TF.GenerationSoftware,KiCad,Pcbnew,8.0.2*%
%TF.CreationDate,2024-06-10T13:17:10+01:00*%
%TF.ProjectId,,58585858-5858-4585-9858-585858585858,rev?*%
%TF.SameCoordinates,Original*%
%TF.FileFunction,Profile,NP*%
%FSLAX46Y46*%
G04 Gerber Fmt 4.6, Leading zero omitted, Abs format (unit mm)*
G04 Created by KiCad (PCBNEW 8.0.2) date 2024-06-10 13:17:10*
%MOMM*%
%LPD*%
G01*
G04 APERTURE LIST*
%TA.AperFunction,Profile*%
%ADD10C,0.100000*%
%TD*%
G04 APERTURE END LIST*
D10*
X180762826Y-52252920D02*
X180778829Y-52378569D01*
X193639142Y-53248272D02*
X193667157Y-53217157D01*
X118913682Y-56627672D02*
X118795882Y-56723725D01*
X146463804Y-56537709D02*
X146336892Y-56454067D01*
X150295882Y-56723725D02*
X150183099Y-56825621D01*
X102250000Y-91249000D02*
X102250000Y-89100000D01*
X119566932Y-56243126D02*
X119428817Y-56306586D01*
X165250000Y-55249500D02*
X165250000Y-53100000D01*
X197650261Y-89112769D02*
X197688922Y-89124899D01*
X116250000Y-95000000D02*
X116246149Y-94848052D01*
X210026274Y-57045882D02*
X209924378Y-56933099D01*
X179112417Y-58101910D02*
X179063256Y-57958084D01*
X118913682Y-20627672D02*
X118795882Y-20723725D01*
X208353895Y-92061410D02*
X208204283Y-92034595D01*
X119623368Y-54420192D02*
X119746753Y-54448824D01*
X181473725Y-93045882D02*
X181377672Y-93163682D01*
X103150261Y-53112769D02*
X103188922Y-53124899D01*
X88946495Y-92015392D02*
X88795716Y-92034595D01*
X103425100Y-89361077D02*
X103437230Y-89399738D01*
X210301908Y-89428170D02*
X210371610Y-89322410D01*
X149505488Y-89100985D02*
X149564133Y-89213254D01*
X145933067Y-92243126D02*
X145791915Y-92186743D01*
X103090467Y-89102052D02*
X103130519Y-89108188D01*
X87321829Y-90051908D02*
X87427589Y-90121610D01*
X178178170Y-126051908D02*
X178280264Y-125976939D01*
X162050000Y-89500000D02*
X162052191Y-89458188D01*
X147226939Y-125530264D02*
X147301908Y-125428170D01*
X116094380Y-52868263D02*
X116135348Y-52748407D01*
X181198091Y-125428170D02*
X181273060Y-125530264D01*
X181198091Y-89428170D02*
X181273060Y-89530264D01*
X194750000Y-91251000D02*
X194750000Y-92000000D01*
X117001000Y-108250000D02*
X116999000Y-108250000D01*
X118377672Y-93163682D02*
X118287709Y-93286195D01*
X103207742Y-125132416D02*
X103244120Y-125150261D01*
X178086317Y-56627672D02*
X177963804Y-56537709D01*
X86265392Y-58696495D02*
X86253850Y-58848052D01*
X147737173Y-88252920D02*
X147746791Y-88126622D01*
X181821829Y-126051908D02*
X181927589Y-126121610D01*
X178801908Y-53428170D02*
X178871610Y-53322410D01*
X150536745Y-126185866D02*
X150649014Y-126244511D01*
X117001000Y-36250000D02*
X116999000Y-36250000D01*
X114705905Y-92376960D02*
X114571182Y-92306586D01*
X179246791Y-124126622D02*
X179250000Y-124000000D01*
X117001000Y-74250000D02*
X117750000Y-74250000D01*
X86452605Y-52985889D02*
X86505488Y-53100985D01*
X151623377Y-54496791D02*
X151750000Y-54500000D01*
X147122327Y-57163682D02*
X147026274Y-57045882D01*
X177498407Y-90385348D02*
X177618263Y-90344380D01*
X130698272Y-89189142D02*
X130714886Y-89176393D01*
X162346472Y-125113630D02*
X162387426Y-125104924D01*
X86626960Y-93544094D02*
X86556586Y-93678817D01*
X131750000Y-92000000D02*
X120750000Y-92000000D01*
X182501592Y-54385348D02*
X182623368Y-54420192D01*
X162054924Y-89437426D02*
X162063630Y-89396472D01*
X113876622Y-54496791D02*
X114002920Y-54487173D01*
X197909121Y-125323842D02*
X197917583Y-125342257D01*
X162063630Y-89396472D02*
X162069577Y-89376393D01*
X181821829Y-90051908D02*
X181927589Y-90121610D01*
X118126960Y-57544094D02*
X118056586Y-57678817D01*
X86284595Y-58545716D02*
X86265392Y-58696495D01*
X86773060Y-125530264D02*
X86853104Y-125628431D01*
X166353503Y-125239451D02*
X166378305Y-125271492D01*
X178871610Y-125322410D02*
X178935866Y-125213254D01*
X193552191Y-53458188D02*
X193554924Y-53437426D01*
X166425100Y-89361077D02*
X166431655Y-89380254D01*
X88795716Y-20034595D02*
X88646104Y-20061410D01*
X207750000Y-20000000D02*
X183750000Y-20000000D01*
X166450000Y-90500000D02*
X176750000Y-90500000D01*
X145204283Y-56034595D02*
X145053504Y-56015392D01*
X151001592Y-90385348D02*
X151123368Y-90420192D01*
X147061981Y-125722417D02*
X147146895Y-125628431D01*
X147494511Y-125100985D02*
X147547394Y-124985889D01*
X177291915Y-56186743D02*
X177148089Y-56137582D01*
X151246753Y-90448824D02*
X151371430Y-90471170D01*
X197550000Y-53100000D02*
X197590467Y-53102052D01*
X151795716Y-92034595D02*
X151646104Y-92061410D01*
X118126960Y-21544094D02*
X118056586Y-21678817D01*
X210750000Y-124000000D02*
X210750000Y-95000000D01*
X210547394Y-88985889D02*
X210594380Y-88868263D01*
X147750000Y-52000000D02*
X147750000Y-38250000D01*
X145250000Y-126500000D02*
X145376622Y-126496791D01*
X179094380Y-88868263D02*
X179135348Y-88748407D01*
X197947947Y-89459532D02*
X197950000Y-89500000D01*
X182998042Y-20095768D02*
X182851910Y-20137582D01*
X210494511Y-53100985D02*
X210547394Y-52985889D01*
X118821829Y-54051908D02*
X118927589Y-54121610D01*
X115646895Y-53628431D02*
X115726939Y-53530264D01*
X166339917Y-89224413D02*
X166353503Y-89239451D01*
X118377672Y-21163682D02*
X118287709Y-21286195D01*
X178712290Y-93286195D02*
X178622327Y-93163682D01*
X183250000Y-54500000D02*
X193550000Y-54500000D01*
X182264110Y-54297394D02*
X182381736Y-54344380D01*
X87413682Y-20627672D02*
X87295882Y-20723725D01*
X166090467Y-53102052D02*
X166110571Y-53104612D01*
X180887582Y-94101910D02*
X180845768Y-94248042D01*
X134925100Y-89361077D02*
X134931655Y-89380254D01*
X178726939Y-53530264D02*
X178801908Y-53428170D01*
X149938018Y-89722417D02*
X150027582Y-89811981D01*
X114963254Y-54185866D02*
X115072410Y-54121610D01*
X149278829Y-124378569D02*
X149301175Y-124503246D01*
X89098052Y-56003850D02*
X88946495Y-56015392D01*
X177498407Y-54385348D02*
X177618263Y-54344380D01*
X149329807Y-88626631D02*
X149364651Y-88748407D01*
X177836892Y-20454067D02*
X177705905Y-20376960D01*
X134707742Y-125132416D02*
X134744120Y-125150261D01*
X134950000Y-89500000D02*
X134950000Y-90500000D01*
X130569577Y-89376393D02*
X130584582Y-89337305D01*
X179250000Y-110250000D02*
X179999000Y-110250000D01*
X86698091Y-89428170D02*
X86773060Y-89530264D01*
X182623368Y-54420192D02*
X182746753Y-54448824D01*
X181287709Y-21286195D02*
X181204067Y-21413107D01*
X182566932Y-92243126D02*
X182428817Y-92306586D01*
X149938018Y-125722417D02*
X150027582Y-125811981D01*
X180750000Y-36250000D02*
X180001000Y-36250000D01*
X162450000Y-125100000D02*
X166050000Y-125100000D01*
X147737173Y-124252920D02*
X147746791Y-124126622D01*
X182871430Y-126471170D02*
X182997079Y-126487173D01*
X145998407Y-90385348D02*
X146118263Y-90344380D01*
X180753208Y-124126622D02*
X180762826Y-124252920D01*
X178943413Y-57678817D02*
X178873039Y-57544094D01*
X149250000Y-72250000D02*
X148501000Y-72250000D01*
X177705905Y-92376960D02*
X177571182Y-92306586D01*
X179999000Y-108250000D02*
X179250000Y-108250000D01*
X210122327Y-93163682D02*
X210026274Y-93045882D01*
X116135348Y-88748407D02*
X116170192Y-88626631D01*
X162287305Y-53134582D02*
X162326393Y-53119577D01*
X103050000Y-89100000D02*
X103090467Y-89102052D01*
X134761585Y-53160542D02*
X134778507Y-53171694D01*
X179250000Y-59000000D02*
X179246149Y-58848052D01*
X146878431Y-125896895D02*
X146972417Y-125811981D01*
X118575621Y-56933099D02*
X118473725Y-57045882D01*
X87649014Y-54244511D02*
X87764110Y-54297394D01*
X176250000Y-56000000D02*
X165250000Y-56000000D01*
X120295716Y-56034595D02*
X120146104Y-56061410D01*
X181377672Y-21163682D02*
X181287709Y-21286195D01*
X150928817Y-92306586D02*
X150794094Y-92376960D01*
X103325586Y-125210082D02*
X103353503Y-125239451D01*
X208876631Y-90420192D02*
X208998407Y-90385348D01*
X87663107Y-56454067D02*
X87536195Y-56537709D01*
X134878305Y-125271492D02*
X134899738Y-125305879D01*
X147746149Y-22848052D02*
X147734607Y-22696495D01*
X150321829Y-90051908D02*
X150427589Y-90121610D01*
X197947947Y-125459532D02*
X197950000Y-125500000D01*
X177291915Y-20186743D02*
X177148089Y-20137582D01*
X147612417Y-22101910D02*
X147563256Y-21958084D01*
X178378431Y-89896895D02*
X178472417Y-89811981D01*
X151351910Y-56137582D02*
X151208084Y-56186743D01*
X88351910Y-56137582D02*
X88208084Y-56186743D01*
X88371430Y-90471170D02*
X88497079Y-90487173D01*
X130667157Y-125217157D02*
X130698272Y-125189142D01*
X147750000Y-23000000D02*
X147746149Y-22848052D01*
X149253850Y-22848052D02*
X149250000Y-23000000D01*
X130593597Y-89318404D02*
X130614532Y-89282144D01*
X208502920Y-90487173D02*
X208628569Y-90471170D01*
X116215404Y-94545716D02*
X116188589Y-94396104D01*
X193554924Y-89437426D02*
X193563630Y-89396472D01*
X89098052Y-20003850D02*
X88946495Y-20015392D01*
X116250000Y-38250000D02*
X116999000Y-38250000D01*
X118056586Y-93678817D02*
X117993126Y-93816932D01*
X116237173Y-88252920D02*
X116246791Y-88126622D01*
X162214886Y-53176393D02*
X162250000Y-53153590D01*
X162114532Y-125282144D02*
X162139142Y-125248272D01*
X181353104Y-125628431D02*
X181438018Y-125722417D01*
X145998407Y-54385348D02*
X146118263Y-54344380D01*
X147371610Y-53322410D02*
X147435866Y-53213254D01*
X179246149Y-58848052D02*
X179234607Y-58696495D01*
X177433067Y-56243126D02*
X177291915Y-56186743D01*
X134909121Y-89323842D02*
X134925100Y-89361077D01*
X179234607Y-94696495D02*
X179215404Y-94545716D01*
X103353503Y-89239451D02*
X103378305Y-89271492D01*
X86877672Y-21163682D02*
X86787709Y-21286195D01*
X116999000Y-72250000D02*
X116250000Y-72250000D01*
X86253208Y-52126622D02*
X86262826Y-52252920D01*
X147750000Y-88000000D02*
X147750000Y-74250000D01*
X210506873Y-57816932D02*
X210443413Y-57678817D01*
X131750000Y-91251000D02*
X131750000Y-92000000D01*
X114571182Y-56306586D02*
X114433067Y-56243126D01*
X151001592Y-126385348D02*
X151123368Y-126420192D01*
X147506873Y-93816932D02*
X147443413Y-93678817D01*
X146878431Y-89896895D02*
X146972417Y-89811981D01*
X165250000Y-92000000D02*
X165250000Y-91251000D01*
X147026274Y-93045882D02*
X146924378Y-92933099D01*
X149265392Y-94696495D02*
X149253850Y-94848052D01*
X86250000Y-88000000D02*
X86253208Y-88126622D01*
X183750000Y-92000000D02*
X183598052Y-92003850D01*
X88123368Y-90420192D02*
X88246753Y-90448824D01*
X209678170Y-54051908D02*
X209780264Y-53976939D01*
X210443413Y-57678817D02*
X210373039Y-57544094D01*
X149311410Y-22396104D02*
X149284595Y-22545716D01*
X179237173Y-88252920D02*
X179246791Y-88126622D01*
X88646104Y-20061410D02*
X88498042Y-20095768D01*
X179170192Y-124626631D02*
X179198824Y-124503246D01*
X210226939Y-125530264D02*
X210301908Y-125428170D01*
X180801175Y-52503246D02*
X180829807Y-52626631D01*
X117811410Y-58396104D02*
X117784595Y-58545716D01*
X148501000Y-110250000D02*
X149250000Y-110250000D01*
X148499000Y-38250000D02*
X148501000Y-38250000D01*
X116154231Y-22248042D02*
X116112417Y-22101910D01*
X103130519Y-89108188D02*
X103169745Y-89118344D01*
X146704117Y-92723725D02*
X146586317Y-92627672D01*
X103261585Y-53160542D02*
X103278507Y-53171694D01*
X149698091Y-89428170D02*
X149773060Y-89530264D01*
X183750000Y-20000000D02*
X183598052Y-20003850D01*
X147547394Y-52985889D02*
X147594380Y-52868263D01*
X162076568Y-53356653D02*
X162084582Y-53337305D01*
X181913682Y-92627672D02*
X181795882Y-92723725D01*
X197778507Y-89171694D02*
X197810548Y-89196496D01*
X117811410Y-22396104D02*
X117784595Y-22545716D01*
X177963804Y-20537709D02*
X177836892Y-20454067D01*
X134810548Y-89196496D02*
X134839917Y-89224413D01*
X130750000Y-125153590D02*
X130768404Y-125143597D01*
X181377672Y-57163682D02*
X181287709Y-57286195D01*
X134931655Y-125380254D02*
X134941811Y-125419480D01*
X115178170Y-90051908D02*
X115280264Y-89976939D01*
X147146895Y-53628431D02*
X147226939Y-53530264D01*
X149698091Y-53428170D02*
X149773060Y-53530264D01*
X117845768Y-22248042D02*
X117811410Y-22396104D01*
X116250000Y-88000000D02*
X116250000Y-74250000D01*
X210612417Y-94101910D02*
X210563256Y-93958084D01*
X86253850Y-22848052D02*
X86250000Y-23000000D01*
X193614532Y-125282144D02*
X193639142Y-125248272D01*
X134909121Y-53323842D02*
X134917583Y-53342257D01*
X145628569Y-126471170D02*
X145753246Y-126448824D01*
X88246753Y-90448824D02*
X88371430Y-90471170D01*
X117784595Y-22545716D02*
X117765392Y-22696495D01*
X150121568Y-89896895D02*
X150219735Y-89976939D01*
X103278507Y-125171694D02*
X103294842Y-125183689D01*
X114836892Y-92454067D02*
X114705905Y-92376960D01*
X148499000Y-74250000D02*
X148501000Y-74250000D01*
X150027582Y-53811981D02*
X150121568Y-53896895D01*
X133750000Y-92000000D02*
X133750000Y-91251000D01*
X163250000Y-91249000D02*
X163250000Y-91251000D01*
X114148089Y-56137582D02*
X114001957Y-56095768D01*
X149877672Y-21163682D02*
X149787709Y-21286195D01*
X134744120Y-89150261D02*
X134778507Y-89171694D01*
X193768404Y-53143597D02*
X193787305Y-53134582D01*
X145648089Y-92137582D02*
X145501957Y-92095768D01*
X134778507Y-53171694D02*
X134810548Y-53196496D01*
X178943413Y-93678817D02*
X178873039Y-93544094D01*
X209924378Y-56933099D02*
X209816900Y-56825621D01*
X150427589Y-126121610D02*
X150536745Y-126185866D01*
X178526274Y-93045882D02*
X178424378Y-92933099D01*
X145876631Y-126420192D02*
X145998407Y-126385348D01*
X115795932Y-21413107D02*
X115712290Y-21286195D01*
X117750000Y-36250000D02*
X117001000Y-36250000D01*
X134610571Y-53104612D02*
X134650261Y-53112769D01*
X86329807Y-52626631D02*
X86364651Y-52748407D01*
X182708084Y-20186743D02*
X182566932Y-20243126D01*
X210688589Y-94396104D02*
X210654231Y-94248042D01*
X207750000Y-92000000D02*
X196750000Y-92000000D01*
X119381736Y-54344380D02*
X119501592Y-54385348D01*
X100250000Y-55251500D02*
X100250000Y-56000000D01*
X147443413Y-21678817D02*
X147373039Y-21544094D01*
X208998407Y-126385348D02*
X209118263Y-126344380D01*
X149262826Y-88252920D02*
X149278829Y-88378569D01*
X193569577Y-89376393D02*
X193584582Y-89337305D01*
X116112417Y-94101910D02*
X116063256Y-93958084D01*
X150321829Y-54051908D02*
X150427589Y-54121610D01*
X115873039Y-93544094D02*
X115795932Y-93413107D01*
X196750000Y-89100000D02*
X197550000Y-89100000D01*
X166378305Y-89271492D02*
X166389457Y-89288414D01*
X145053504Y-92015392D02*
X144901947Y-92003850D01*
X162052191Y-89458188D02*
X162054924Y-89437426D01*
X162050000Y-126500000D02*
X162050000Y-125500000D01*
X116047394Y-124985889D02*
X116094380Y-124868263D01*
X114001957Y-56095768D02*
X113853895Y-56061410D01*
X147698824Y-88503246D02*
X147721170Y-88378569D01*
X182746753Y-54448824D02*
X182871430Y-54471170D01*
X182036745Y-126185866D02*
X182149014Y-126244511D01*
X209118263Y-54344380D02*
X209235889Y-54297394D01*
X178646895Y-125628431D02*
X178726939Y-125530264D01*
X99152742Y-89232348D02*
X99167157Y-89217157D01*
X103310548Y-89196496D02*
X103325586Y-89210082D01*
X146924378Y-56933099D02*
X146816900Y-56825621D01*
X209586317Y-92627672D02*
X209463804Y-92537709D01*
X149253208Y-124126622D02*
X149262826Y-124252920D01*
X103399738Y-89305879D02*
X103409121Y-89323842D01*
X86278829Y-52378569D02*
X86301175Y-52503246D01*
X209780264Y-53976939D02*
X209878431Y-53896895D01*
X149345768Y-22248042D02*
X149311410Y-22396104D01*
X103409121Y-89323842D02*
X103425100Y-89361077D01*
X99214886Y-53176393D02*
X99250000Y-53153590D01*
X210494511Y-89100985D02*
X210547394Y-88985889D01*
X119998042Y-20095768D02*
X119851910Y-20137582D01*
X149452605Y-124985889D02*
X149505488Y-125100985D01*
X130908188Y-89102191D02*
X130950000Y-89100000D01*
X149364651Y-52748407D02*
X149405619Y-52868263D01*
X162054924Y-125437426D02*
X162063630Y-125396472D01*
X179250000Y-124000000D02*
X179250000Y-110250000D01*
X147750000Y-38250000D02*
X148499000Y-38250000D01*
X130846472Y-89113630D02*
X130887426Y-89104924D01*
X151371430Y-90471170D02*
X151497079Y-90487173D01*
X180993126Y-21816932D02*
X180936743Y-21958084D01*
X130554924Y-125437426D02*
X130563630Y-125396472D01*
X150413682Y-92627672D02*
X150295882Y-92723725D01*
X180952605Y-88985889D02*
X181005488Y-89100985D01*
X176876622Y-54496791D02*
X177002920Y-54487173D01*
X86253850Y-94848052D02*
X86250000Y-95000000D01*
X89250000Y-20000000D02*
X89098052Y-20003850D01*
X133750000Y-53100000D02*
X134550000Y-53100000D01*
X117905619Y-52868263D02*
X117952605Y-52985889D01*
X183146104Y-92061410D02*
X182998042Y-92095768D01*
X131750000Y-55249500D02*
X131750000Y-55251500D01*
X149265392Y-22696495D02*
X149253850Y-22848052D01*
X180750000Y-88000000D02*
X180753208Y-88126622D01*
X114291915Y-56186743D02*
X114148089Y-56137582D01*
X179154231Y-94248042D02*
X179112417Y-94101910D01*
X86853104Y-125628431D02*
X86938018Y-125722417D01*
X118719735Y-53976939D02*
X118821829Y-54051908D01*
X177001957Y-56095768D02*
X176853895Y-56061410D01*
X88623377Y-90496791D02*
X88750000Y-90500000D01*
X86973725Y-57045882D02*
X86877672Y-57163682D01*
X210698824Y-52503246D02*
X210721170Y-52378569D01*
X86284595Y-22545716D02*
X86265392Y-22696495D01*
X130950000Y-53100000D02*
X131750000Y-53100000D01*
X177705905Y-56376960D02*
X177571182Y-56306586D01*
X197794842Y-53183689D02*
X197825586Y-53210082D01*
X86250000Y-59000000D02*
X86250000Y-88000000D01*
X150027582Y-89811981D02*
X150121568Y-89896895D01*
X99450000Y-125100000D02*
X103050000Y-125100000D01*
X103447947Y-125459532D02*
X103450000Y-125500000D01*
X147654231Y-22248042D02*
X147612417Y-22101910D01*
X183598052Y-92003850D02*
X183446495Y-92015392D01*
X210688589Y-58396104D02*
X210654231Y-58248042D01*
X115646895Y-125628431D02*
X115726939Y-125530264D01*
X87764110Y-54297394D02*
X87881736Y-54344380D01*
X150794094Y-92376960D02*
X150663107Y-92454067D01*
X178994511Y-125100985D02*
X179047394Y-124985889D01*
X178935866Y-53213254D02*
X178994511Y-53100985D01*
X193550000Y-90500000D02*
X193550000Y-89500000D01*
X86387582Y-94101910D02*
X86345768Y-94248042D01*
X147594380Y-88868263D02*
X147635348Y-88748407D01*
X179234607Y-22696495D02*
X179215404Y-22545716D01*
X86278829Y-88378569D02*
X86301175Y-88503246D01*
X116221170Y-88378569D02*
X116237173Y-88252920D01*
X99387426Y-125104924D02*
X99408188Y-125102191D01*
X162268404Y-125143597D02*
X162306653Y-125126568D01*
X149250000Y-110250000D02*
X149250000Y-124000000D01*
X193698272Y-125189142D02*
X193732144Y-125164532D01*
X177618263Y-90344380D02*
X177735889Y-90297394D01*
X99152742Y-53232348D02*
X99167157Y-53217157D01*
X162063630Y-53396472D02*
X162076568Y-53356653D01*
X88208084Y-20186743D02*
X88066932Y-20243126D01*
X86704067Y-57413107D02*
X86626960Y-57544094D01*
X87881736Y-90344380D02*
X88001592Y-90385348D01*
X87536195Y-56537709D02*
X87413682Y-56627672D01*
X115726939Y-125530264D02*
X115801908Y-125428170D01*
X193667157Y-53217157D02*
X193682348Y-53202742D01*
X86345768Y-22248042D02*
X86311410Y-22396104D01*
X134950000Y-53500000D02*
X134950000Y-54500000D01*
X145628569Y-90471170D02*
X145753246Y-90448824D01*
X209463804Y-92537709D02*
X209336892Y-92454067D01*
X86387582Y-22101910D02*
X86345768Y-22248042D01*
X210594380Y-52868263D02*
X210635348Y-52748407D01*
X114963804Y-56537709D02*
X114836892Y-56454067D01*
X180753850Y-22848052D02*
X180750000Y-23000000D01*
X147301908Y-53428170D02*
X147371610Y-53322410D01*
X145876631Y-54420192D02*
X145998407Y-54385348D01*
X210373039Y-21544094D02*
X210295932Y-21413107D01*
X166417583Y-53342257D02*
X166431655Y-53380254D01*
X193950000Y-89100000D02*
X194750000Y-89100000D01*
X147612417Y-58101910D02*
X147563256Y-57958084D01*
X182871430Y-54471170D02*
X182997079Y-54487173D01*
X196750000Y-55251500D02*
X196750000Y-55249500D01*
X118273060Y-125530264D02*
X118353104Y-125628431D01*
X117762826Y-52252920D02*
X117778829Y-52378569D01*
X103110571Y-53104612D02*
X103150261Y-53112769D01*
X180905619Y-88868263D02*
X180952605Y-88985889D01*
X208204283Y-20034595D02*
X208053504Y-20015392D01*
X194750000Y-53100000D02*
X194750000Y-55249500D01*
X166450000Y-125500000D02*
X166450000Y-126500000D01*
X149250000Y-52000000D02*
X149253208Y-52126622D01*
X87121568Y-125896895D02*
X87219735Y-125976939D01*
X162084582Y-53337305D02*
X162103590Y-53300000D01*
X179246791Y-52126622D02*
X179250000Y-52000000D01*
X209205905Y-92376960D02*
X209071182Y-92306586D01*
X147721170Y-88378569D02*
X147737173Y-88252920D01*
X162326393Y-53119577D02*
X162346472Y-53113630D01*
X118927589Y-126121610D02*
X119036745Y-126185866D01*
X117829807Y-88626631D02*
X117864651Y-88748407D01*
X179999000Y-36250000D02*
X179250000Y-36250000D01*
X149853104Y-89628431D02*
X149938018Y-89722417D01*
X117845768Y-58248042D02*
X117811410Y-58396104D01*
X149452605Y-88985889D02*
X149505488Y-89100985D01*
X115726939Y-53530264D02*
X115801908Y-53428170D01*
X182149014Y-90244511D02*
X182264110Y-90297394D01*
X162114532Y-89282144D02*
X162126393Y-89264886D01*
X180905619Y-52868263D02*
X180952605Y-52985889D01*
X197744120Y-89150261D02*
X197778507Y-89171694D01*
X86405619Y-88868263D02*
X86452605Y-88985889D01*
X182623368Y-126420192D02*
X182746753Y-126448824D01*
X88750000Y-54500000D02*
X99050000Y-54500000D01*
X177001957Y-20095768D02*
X176853895Y-20061410D01*
X182149014Y-126244511D02*
X182264110Y-126297394D01*
X210373039Y-57544094D02*
X210295932Y-57413107D01*
X134853503Y-125239451D02*
X134878305Y-125271492D01*
X103130519Y-125108188D02*
X103169745Y-125118344D01*
X120598052Y-20003850D02*
X120446495Y-20015392D01*
X145753246Y-54448824D02*
X145876631Y-54420192D01*
X115204117Y-56723725D02*
X115086317Y-56627672D01*
X183250000Y-90500000D02*
X193550000Y-90500000D01*
X119851910Y-56137582D02*
X119708084Y-56186743D01*
X179198824Y-52503246D02*
X179221170Y-52378569D01*
X209572410Y-126121610D02*
X209678170Y-126051908D01*
X115086317Y-56627672D02*
X114963804Y-56537709D01*
X197909121Y-89323842D02*
X197917583Y-89342257D01*
X178795932Y-57413107D02*
X178712290Y-57286195D01*
X197610571Y-53104612D02*
X197650261Y-53112769D01*
X149364651Y-124748407D02*
X149405619Y-124868263D01*
X103417583Y-125342257D02*
X103431655Y-125380254D01*
X147750000Y-36250000D02*
X147750000Y-23000000D01*
X178712290Y-21286195D02*
X178622327Y-21163682D01*
X116250000Y-59000000D02*
X116246149Y-58848052D01*
X147435866Y-89213254D02*
X147494511Y-89100985D01*
X146071182Y-92306586D02*
X145933067Y-92243126D01*
X146678170Y-54051908D02*
X146780264Y-53976939D01*
X118064133Y-53213254D02*
X118128389Y-53322410D01*
X130550000Y-90500000D02*
X130550000Y-89500000D01*
X99214886Y-89176393D02*
X99250000Y-89153590D01*
X145376622Y-126496791D02*
X145502920Y-126487173D01*
X193552191Y-89458188D02*
X193554924Y-89437426D01*
X149493126Y-57816932D02*
X149436743Y-57958084D01*
X134899738Y-125305879D02*
X134909121Y-125323842D01*
X196750000Y-92000000D02*
X196750000Y-91251000D01*
X193682348Y-89202742D02*
X193698272Y-89189142D01*
X86253208Y-124126622D02*
X86262826Y-124252920D01*
X197950000Y-54500000D02*
X208250000Y-54500000D01*
X150121568Y-53896895D02*
X150219735Y-53976939D01*
X162050000Y-54500000D02*
X162050000Y-53500000D01*
X115378431Y-125896895D02*
X115472417Y-125811981D01*
X120123377Y-54496791D02*
X120250000Y-54500000D01*
X118353104Y-53628431D02*
X118438018Y-53722417D01*
X162198272Y-53189142D02*
X162214886Y-53176393D01*
X86250000Y-95000000D02*
X86250000Y-124000000D01*
X87881736Y-126344380D02*
X88001592Y-126385348D01*
X180864651Y-88748407D02*
X180905619Y-88868263D01*
X115472417Y-125811981D02*
X115561981Y-125722417D01*
X130563630Y-125396472D02*
X130576568Y-125356653D01*
X207750000Y-56000000D02*
X196750000Y-56000000D01*
X162052191Y-53458188D02*
X162054924Y-53437426D01*
X131750000Y-89100000D02*
X131750000Y-91249000D01*
X210734607Y-22696495D02*
X210715404Y-22545716D01*
X179250000Y-72250000D02*
X179250000Y-59000000D01*
X179999000Y-110250000D02*
X180001000Y-110250000D01*
X118056586Y-57678817D02*
X117993126Y-57816932D01*
X149329807Y-124626631D02*
X149364651Y-124748407D01*
X113401947Y-20003850D02*
X113250000Y-20000000D01*
X193563630Y-89396472D02*
X193569577Y-89376393D01*
X117750000Y-38250000D02*
X117750000Y-52000000D01*
X117905619Y-88868263D02*
X117952605Y-88985889D01*
X197878305Y-89271492D02*
X197899738Y-89305879D01*
X119623368Y-90420192D02*
X119746753Y-90448824D01*
X193614532Y-89282144D02*
X193639142Y-89248272D01*
X134550000Y-125100000D02*
X134590467Y-125102052D01*
X118273060Y-89530264D02*
X118353104Y-89628431D01*
X118064133Y-89213254D02*
X118128389Y-89322410D01*
X87764110Y-90297394D02*
X87881736Y-90344380D01*
X208753246Y-126448824D02*
X208876631Y-126420192D01*
X209235889Y-90297394D02*
X209350985Y-90244511D01*
X146463254Y-90185866D02*
X146572410Y-90121610D01*
X87321829Y-126051908D02*
X87427589Y-126121610D01*
X130698272Y-125189142D02*
X130732144Y-125164532D01*
X86853104Y-53628431D02*
X86938018Y-53722417D01*
X130552191Y-125458188D02*
X130554924Y-125437426D01*
X178472417Y-125811981D02*
X178561981Y-125722417D01*
X178178170Y-90051908D02*
X178280264Y-89976939D01*
X210721170Y-124378569D02*
X210737173Y-124252920D01*
X134590467Y-53102052D02*
X134610571Y-53104612D01*
X114735889Y-126297394D02*
X114850985Y-126244511D01*
X180864651Y-124748407D02*
X180905619Y-124868263D01*
X134917583Y-125342257D02*
X134931655Y-125380254D01*
X208501957Y-92095768D02*
X208353895Y-92061410D01*
X176250000Y-20000000D02*
X152250000Y-20000000D01*
X177705905Y-20376960D02*
X177571182Y-20306586D01*
X134917583Y-53342257D02*
X134931655Y-53380254D01*
X130554924Y-53437426D02*
X130563630Y-53396472D01*
X208502920Y-126487173D02*
X208628569Y-126471170D01*
X193908188Y-125102191D02*
X193950000Y-125100000D01*
X116154231Y-58248042D02*
X116112417Y-58101910D01*
X150183099Y-56825621D02*
X150075621Y-56933099D01*
X210594380Y-124868263D02*
X210635348Y-124748407D01*
X182566932Y-20243126D02*
X182428817Y-20306586D01*
X208502920Y-54487173D02*
X208628569Y-54471170D01*
X180952605Y-52985889D02*
X181005488Y-53100985D01*
X151646104Y-56061410D02*
X151498042Y-56095768D01*
X149556586Y-57678817D02*
X149493126Y-57816932D01*
X114571182Y-20306586D02*
X114433067Y-20243126D01*
X210654231Y-94248042D02*
X210612417Y-94101910D01*
X116198824Y-124503246D02*
X116221170Y-124378569D01*
X210594380Y-88868263D02*
X210635348Y-88748407D01*
X86564133Y-89213254D02*
X86628389Y-89322410D01*
X118287709Y-93286195D02*
X118204067Y-93413107D01*
X119163107Y-92454067D02*
X119036195Y-92537709D01*
X146586317Y-92627672D02*
X146463804Y-92537709D01*
X210746149Y-58848052D02*
X210734607Y-58696495D01*
X116006873Y-21816932D02*
X115943413Y-21678817D01*
X194750000Y-92000000D02*
X183750000Y-92000000D01*
X179170192Y-52626631D02*
X179198824Y-52503246D01*
X210563256Y-93958084D02*
X210506873Y-93816932D01*
X178795932Y-21413107D02*
X178712290Y-21286195D01*
X197778507Y-125171694D02*
X197794842Y-125183689D01*
X146780264Y-89976939D02*
X146878431Y-89896895D01*
X193554924Y-53437426D02*
X193563630Y-53396472D01*
X88001592Y-54385348D02*
X88123368Y-54420192D01*
X178424378Y-20933099D02*
X178316900Y-20825621D01*
X197590467Y-125102052D02*
X197630519Y-125108188D01*
X181064133Y-89213254D02*
X181128389Y-89322410D01*
X182428817Y-56306586D02*
X182294094Y-56376960D01*
X147146895Y-125628431D02*
X147226939Y-125530264D01*
X114836892Y-20454067D02*
X114705905Y-20376960D01*
X177148089Y-56137582D02*
X177001957Y-56095768D01*
X130667157Y-89217157D02*
X130698272Y-89189142D01*
X151066932Y-20243126D02*
X150928817Y-20306586D01*
X180936743Y-21958084D02*
X180887582Y-22101910D01*
X208053504Y-20015392D02*
X207901947Y-20003850D01*
X87794094Y-92376960D02*
X87663107Y-92454067D01*
X87536195Y-20537709D02*
X87413682Y-20627672D01*
X116112417Y-58101910D02*
X116063256Y-57958084D01*
X119871430Y-90471170D02*
X119997079Y-90487173D01*
X180765392Y-58696495D02*
X180753850Y-58848052D01*
X178561981Y-125722417D02*
X178646895Y-125628431D01*
X181005488Y-89100985D02*
X181064133Y-89213254D01*
X166188922Y-125124899D02*
X166207742Y-125132416D01*
X87183099Y-56825621D02*
X87075621Y-56933099D01*
X151208084Y-56186743D02*
X151066932Y-56243126D01*
X147750000Y-95000000D02*
X147746149Y-94848052D01*
X117753208Y-52126622D02*
X117762826Y-52252920D01*
X177001957Y-92095768D02*
X176853895Y-92061410D01*
X99232144Y-125164532D02*
X99250000Y-125153590D01*
X151623377Y-90496791D02*
X151750000Y-90500000D01*
X103188922Y-125124899D02*
X103207742Y-125132416D01*
X116063256Y-57958084D02*
X116006873Y-57816932D01*
X118056586Y-21678817D02*
X117993126Y-21816932D01*
X162050000Y-90500000D02*
X162050000Y-89500000D01*
X193846472Y-53113630D02*
X193887426Y-53104924D01*
X148501000Y-108250000D02*
X148499000Y-108250000D01*
X113750000Y-54500000D02*
X113876622Y-54496791D01*
X99306653Y-125126568D02*
X99346472Y-125113630D01*
X149301175Y-124503246D02*
X149329807Y-124626631D01*
X134941811Y-125419480D02*
X134947947Y-125459532D01*
X147301908Y-89428170D02*
X147371610Y-89322410D01*
X162084582Y-125337305D02*
X162093597Y-125318404D01*
X119746753Y-90448824D02*
X119871430Y-90471170D01*
X180887582Y-58101910D02*
X180845768Y-58248042D01*
X149311410Y-94396104D02*
X149284595Y-94545716D01*
X151123368Y-126420192D02*
X151246753Y-126448824D01*
X99084582Y-53337305D02*
X99093597Y-53318404D01*
X178072410Y-54121610D02*
X178178170Y-54051908D01*
X133750000Y-55249500D02*
X133750000Y-53100000D01*
X117750000Y-72250000D02*
X117001000Y-72250000D01*
X179135348Y-88748407D02*
X179170192Y-88626631D01*
X162287305Y-89134582D02*
X162326393Y-89119577D01*
X99063630Y-89396472D02*
X99069577Y-89376393D01*
X87219735Y-89976939D02*
X87321829Y-90051908D01*
X180001000Y-36250000D02*
X179999000Y-36250000D01*
X114963254Y-126185866D02*
X115072410Y-126121610D01*
X193950000Y-125100000D02*
X197550000Y-125100000D01*
X99450000Y-89100000D02*
X100250000Y-89100000D01*
X149405619Y-124868263D02*
X149452605Y-124985889D01*
X197917583Y-89342257D02*
X197931655Y-89380254D01*
X147734607Y-58696495D02*
X147715404Y-58545716D01*
X114433067Y-20243126D02*
X114291915Y-20186743D01*
X197899738Y-53305879D02*
X197909121Y-53323842D01*
X103450000Y-89500000D02*
X103450000Y-90500000D01*
X120750000Y-20000000D02*
X120598052Y-20003850D01*
X150295882Y-92723725D02*
X150183099Y-92825621D01*
X181621568Y-53896895D02*
X181719735Y-53976939D01*
X130806653Y-125126568D02*
X130846472Y-125113630D01*
X88498042Y-20095768D02*
X88351910Y-20137582D01*
X134707742Y-89132416D02*
X134744120Y-89150261D01*
X193652742Y-125232348D02*
X193682348Y-125202742D01*
X116999000Y-38250000D02*
X117001000Y-38250000D01*
X119501592Y-54385348D02*
X119623368Y-54420192D01*
X87413682Y-56627672D02*
X87295882Y-56723725D01*
X209972417Y-125811981D02*
X210061981Y-125722417D01*
X208998407Y-90385348D02*
X209118263Y-90344380D01*
X144901947Y-56003850D02*
X144750000Y-56000000D01*
X118927589Y-54121610D02*
X119036745Y-54185866D01*
X115622327Y-57163682D02*
X115526274Y-57045882D01*
X114128569Y-54471170D02*
X114253246Y-54448824D01*
X86628389Y-53322410D02*
X86698091Y-53428170D01*
X115943413Y-57678817D02*
X115873039Y-57544094D01*
X115871610Y-89322410D02*
X115935866Y-89213254D01*
X179215404Y-22545716D02*
X179188589Y-22396104D01*
X146336892Y-92454067D02*
X146205905Y-92376960D01*
X134889457Y-53288414D02*
X134909121Y-53323842D01*
X99346472Y-125113630D02*
X99387426Y-125104924D01*
X209336892Y-56454067D02*
X209205905Y-56376960D01*
X130846472Y-125113630D02*
X130887426Y-125104924D01*
X87219735Y-125976939D02*
X87321829Y-126051908D01*
X149253208Y-52126622D02*
X149262826Y-52252920D01*
X117993126Y-57816932D02*
X117936743Y-57958084D01*
X119997079Y-54487173D02*
X120123377Y-54496791D01*
X180750000Y-74250000D02*
X180750000Y-88000000D01*
X146678170Y-126051908D02*
X146780264Y-125976939D01*
X162167157Y-53217157D02*
X162198272Y-53189142D01*
X210371610Y-125322410D02*
X210435866Y-125213254D01*
X145204283Y-20034595D02*
X145053504Y-20015392D01*
X208628569Y-126471170D02*
X208753246Y-126448824D01*
X118128389Y-125322410D02*
X118198091Y-125428170D01*
X130626393Y-89264886D02*
X130652742Y-89232348D01*
X183250000Y-126500000D02*
X193550000Y-126500000D01*
X115072410Y-54121610D02*
X115178170Y-54051908D01*
X113553504Y-92015392D02*
X113401947Y-92003850D01*
X207901947Y-92003850D02*
X207750000Y-92000000D01*
X115378431Y-89896895D02*
X115472417Y-89811981D01*
X134878305Y-53271492D02*
X134889457Y-53288414D01*
X210737173Y-52252920D02*
X210746791Y-52126622D01*
X197630519Y-125108188D02*
X197669745Y-125118344D01*
X151498042Y-92095768D02*
X151351910Y-92137582D01*
X119294094Y-20376960D02*
X119163107Y-20454067D01*
X103353503Y-53239451D02*
X103378305Y-53271492D01*
X210122327Y-21163682D02*
X210026274Y-21045882D01*
X130576568Y-125356653D02*
X130584582Y-125337305D01*
X115316900Y-92825621D02*
X115204117Y-92723725D01*
X99093597Y-89318404D02*
X99114532Y-89282144D01*
X149564133Y-89213254D02*
X149628389Y-89322410D01*
X146071182Y-56306586D02*
X145933067Y-56243126D01*
X149973725Y-21045882D02*
X149877672Y-21163682D01*
X116221170Y-124378569D02*
X116237173Y-124252920D01*
X130787305Y-53134582D02*
X130826393Y-53119577D01*
X103378305Y-125271492D02*
X103399738Y-125305879D01*
X150794094Y-56376960D02*
X150663107Y-56454067D01*
X182294094Y-20376960D02*
X182163107Y-20454067D01*
X179047394Y-88985889D02*
X179094380Y-88868263D01*
X115994511Y-53100985D02*
X116047394Y-52985889D01*
X183295716Y-20034595D02*
X183146104Y-20061410D01*
X181621568Y-125896895D02*
X181719735Y-125976939D01*
X209704117Y-56723725D02*
X209586317Y-56627672D01*
X179221170Y-52378569D02*
X179237173Y-52252920D01*
X118795882Y-56723725D02*
X118683099Y-56825621D01*
X147612417Y-94101910D02*
X147563256Y-93958084D01*
X182708084Y-56186743D02*
X182566932Y-56243126D01*
X182149014Y-54244511D02*
X182264110Y-54297394D01*
X210654231Y-58248042D02*
X210612417Y-58101910D01*
X183598052Y-20003850D02*
X183446495Y-20015392D01*
X181126960Y-93544094D02*
X181056586Y-93678817D01*
X147750000Y-74250000D02*
X148499000Y-74250000D01*
X103447947Y-89459532D02*
X103450000Y-89500000D01*
X87928817Y-20306586D02*
X87794094Y-20376960D01*
X86250000Y-23000000D02*
X86250000Y-52000000D01*
X210750000Y-52000000D02*
X210750000Y-23000000D01*
X181353104Y-89628431D02*
X181438018Y-89722417D01*
X177002920Y-90487173D02*
X177128569Y-90471170D01*
X100250000Y-91249000D02*
X100250000Y-91251000D01*
X117750000Y-95000000D02*
X117750000Y-108250000D01*
X116221170Y-52378569D02*
X116237173Y-52252920D01*
X178472417Y-53811981D02*
X178561981Y-53722417D01*
X146586317Y-56627672D02*
X146463804Y-56537709D01*
X162103590Y-53300000D02*
X162114532Y-53282144D01*
X166310548Y-53196496D02*
X166339917Y-53224413D01*
X103441811Y-89419480D02*
X103447947Y-89459532D01*
X193576568Y-53356653D02*
X193584582Y-53337305D01*
X151208084Y-20186743D02*
X151066932Y-20243126D01*
X87536745Y-90185866D02*
X87649014Y-90244511D01*
X210435866Y-125213254D02*
X210494511Y-125100985D01*
X130584582Y-53337305D02*
X130603590Y-53300000D01*
X208791915Y-92186743D02*
X208648089Y-92137582D01*
X208204283Y-92034595D02*
X208053504Y-92015392D01*
X130667157Y-53217157D02*
X130698272Y-53189142D01*
X134590467Y-125102052D02*
X134630519Y-125108188D01*
X134947947Y-125459532D02*
X134950000Y-125500000D01*
X180753850Y-58848052D02*
X180750000Y-59000000D01*
X210061981Y-53722417D02*
X210146895Y-53628431D01*
X117765392Y-22696495D02*
X117753850Y-22848052D01*
X209336892Y-92454067D02*
X209205905Y-92376960D01*
X178873039Y-57544094D02*
X178795932Y-57413107D01*
X166188922Y-53124899D02*
X166226157Y-53140878D01*
X210635348Y-124748407D02*
X210670192Y-124626631D01*
X134630519Y-89108188D02*
X134669745Y-89118344D01*
X197590467Y-53102052D02*
X197610571Y-53104612D01*
X210715404Y-22545716D02*
X210688589Y-22396104D01*
X180845768Y-58248042D02*
X180811410Y-58396104D01*
X100250000Y-56000000D02*
X89250000Y-56000000D01*
X134650261Y-53112769D02*
X134688922Y-53124899D01*
X209118263Y-90344380D02*
X209235889Y-90297394D01*
X86556586Y-21678817D02*
X86493126Y-21816932D01*
X177128569Y-126471170D02*
X177253246Y-126448824D01*
X166244120Y-53150261D02*
X166278507Y-53171694D01*
X113250000Y-56000000D02*
X102250000Y-56000000D01*
X193787305Y-89134582D02*
X193806653Y-89126568D01*
X150536745Y-90185866D02*
X150649014Y-90244511D01*
X114002920Y-54487173D02*
X114128569Y-54471170D01*
X165250000Y-55251500D02*
X165250000Y-55249500D01*
X114002920Y-90487173D02*
X114128569Y-90471170D01*
X181438018Y-53722417D02*
X181527582Y-53811981D01*
X115280264Y-89976939D02*
X115378431Y-89896895D01*
X162306653Y-125126568D02*
X162346472Y-125113630D01*
X182997079Y-90487173D02*
X183123377Y-90496791D01*
X115086317Y-20627672D02*
X114963804Y-20537709D01*
X114291915Y-92186743D02*
X114148089Y-92137582D01*
X147715404Y-58545716D02*
X147688589Y-58396104D01*
X113250000Y-92000000D02*
X102250000Y-92000000D01*
X99346472Y-89113630D02*
X99387426Y-89104924D01*
X183598052Y-56003850D02*
X183446495Y-56015392D01*
X115712290Y-21286195D02*
X115622327Y-21163682D01*
X180845768Y-22248042D02*
X180811410Y-22396104D01*
X149250000Y-74250000D02*
X149250000Y-88000000D01*
X149704067Y-21413107D02*
X149626960Y-21544094D01*
X180753850Y-94848052D02*
X180750000Y-95000000D01*
X147371610Y-125322410D02*
X147435866Y-125213254D01*
X182428817Y-20306586D02*
X182294094Y-20376960D01*
X177128569Y-90471170D02*
X177253246Y-90448824D01*
X193682348Y-125202742D02*
X193698272Y-125189142D01*
X87075621Y-20933099D02*
X86973725Y-21045882D01*
X208250000Y-54500000D02*
X208376622Y-54496791D01*
X134839917Y-53224413D02*
X134853503Y-53239451D01*
X115871610Y-53322410D02*
X115935866Y-53213254D01*
X147295932Y-57413107D02*
X147212290Y-57286195D01*
X87764110Y-126297394D02*
X87881736Y-126344380D01*
X149301175Y-88503246D02*
X149329807Y-88626631D01*
X99250000Y-89153590D02*
X99287305Y-89134582D01*
X102250000Y-56000000D02*
X102250000Y-55251500D01*
X162139142Y-53248272D02*
X162152742Y-53232348D01*
X114498407Y-126385348D02*
X114618263Y-126344380D01*
X88623377Y-126496791D02*
X88750000Y-126500000D01*
X150881736Y-54344380D02*
X151001592Y-54385348D01*
X149250000Y-95000000D02*
X149250000Y-108250000D01*
X146780264Y-125976939D02*
X146878431Y-125896895D01*
X178424378Y-92933099D02*
X178316900Y-92825621D01*
X182163107Y-56454067D02*
X182036195Y-56537709D01*
X208353895Y-56061410D02*
X208204283Y-56034595D01*
X180753208Y-88126622D02*
X180762826Y-88252920D01*
X210746149Y-22848052D02*
X210734607Y-22696495D01*
X182997079Y-54487173D02*
X183123377Y-54496791D01*
X146118263Y-90344380D02*
X146235889Y-90297394D01*
X87183099Y-20825621D02*
X87075621Y-20933099D01*
X179188589Y-94396104D02*
X179154231Y-94248042D01*
X88001592Y-90385348D02*
X88123368Y-90420192D01*
X178873039Y-21544094D02*
X178795932Y-21413107D01*
X166050000Y-89100000D02*
X166090467Y-89102052D01*
X118621568Y-53896895D02*
X118719735Y-53976939D01*
X119381736Y-126344380D02*
X119501592Y-126385348D01*
X87928817Y-56306586D02*
X87794094Y-56376960D01*
X193563630Y-53396472D02*
X193576568Y-53356653D01*
X148499000Y-36250000D02*
X147750000Y-36250000D01*
X180750000Y-38250000D02*
X180750000Y-52000000D01*
X182294094Y-92376960D02*
X182163107Y-92454067D01*
X208250000Y-126500000D02*
X208376622Y-126496791D01*
X119851910Y-20137582D02*
X119708084Y-20186743D01*
X117001000Y-72250000D02*
X116999000Y-72250000D01*
X116250000Y-52000000D02*
X116250000Y-38250000D01*
X177253246Y-126448824D02*
X177376631Y-126420192D01*
X166450000Y-53500000D02*
X166450000Y-54500000D01*
X193593597Y-89318404D02*
X193614532Y-89282144D01*
X177128569Y-54471170D02*
X177253246Y-54448824D01*
X145502920Y-126487173D02*
X145628569Y-126471170D01*
X178935866Y-89213254D02*
X178994511Y-89100985D01*
X103378305Y-53271492D02*
X103389457Y-53288414D01*
X150427589Y-90121610D02*
X150536745Y-90185866D01*
X176704283Y-56034595D02*
X176553504Y-56015392D01*
X100250000Y-55249500D02*
X100250000Y-55251500D01*
X87027582Y-89811981D02*
X87121568Y-89896895D01*
X99167157Y-125217157D02*
X99198272Y-125189142D01*
X116135348Y-124748407D02*
X116170192Y-124626631D01*
X99450000Y-53100000D02*
X100250000Y-53100000D01*
X113750000Y-126500000D02*
X113876622Y-126496791D01*
X103353503Y-125239451D02*
X103378305Y-125271492D01*
X147026274Y-21045882D02*
X146924378Y-20933099D01*
X147547394Y-124985889D02*
X147594380Y-124868263D01*
X117993126Y-93816932D02*
X117936743Y-93958084D01*
X178086317Y-20627672D02*
X177963804Y-20537709D01*
X166294842Y-125183689D02*
X166325586Y-125210082D01*
X166130519Y-89108188D02*
X166169745Y-89118344D01*
X99408188Y-89102191D02*
X99450000Y-89100000D01*
X208628569Y-90471170D02*
X208753246Y-90448824D01*
X194750000Y-91249000D02*
X194750000Y-91251000D01*
X209972417Y-53811981D02*
X210061981Y-53722417D01*
X210212290Y-93286195D02*
X210122327Y-93163682D01*
X117801175Y-52503246D02*
X117829807Y-52626631D01*
X181204067Y-93413107D02*
X181126960Y-93544094D01*
X152250000Y-20000000D02*
X152098052Y-20003850D01*
X88066932Y-20243126D02*
X87928817Y-20306586D01*
X166431655Y-53380254D02*
X166441811Y-53419480D01*
X197550000Y-89100000D02*
X197570259Y-89100513D01*
X162250000Y-53153590D02*
X162287305Y-53134582D01*
X86253850Y-58848052D02*
X86250000Y-59000000D01*
X179047394Y-52985889D02*
X179094380Y-52868263D01*
X193550000Y-125500000D02*
X193550548Y-125479065D01*
X113401947Y-56003850D02*
X113250000Y-56000000D01*
X147750000Y-72250000D02*
X147750000Y-59000000D01*
X197825586Y-53210082D02*
X197853503Y-53239451D01*
X193732144Y-125164532D02*
X193750000Y-125153590D01*
X210746149Y-94848052D02*
X210734607Y-94696495D01*
X113704283Y-56034595D02*
X113553504Y-56015392D01*
X99306653Y-89126568D02*
X99346472Y-89113630D01*
X181575621Y-56933099D02*
X181473725Y-57045882D01*
X147494511Y-53100985D02*
X147547394Y-52985889D01*
X147688589Y-58396104D02*
X147654231Y-58248042D01*
X86698091Y-53428170D02*
X86773060Y-53530264D01*
X147737173Y-52252920D02*
X147746791Y-52126622D01*
X86301175Y-52503246D02*
X86329807Y-52626631D01*
X114002920Y-126487173D02*
X114128569Y-126471170D01*
X208204283Y-56034595D02*
X208053504Y-56015392D01*
X86452605Y-88985889D02*
X86505488Y-89100985D01*
X118005488Y-125100985D02*
X118064133Y-125213254D01*
X166431655Y-125380254D02*
X166441811Y-125419480D01*
X149704067Y-93413107D02*
X149626960Y-93544094D01*
X103441811Y-53419480D02*
X103447947Y-53459532D01*
X144901947Y-20003850D02*
X144750000Y-20000000D01*
X149345768Y-58248042D02*
X149311410Y-58396104D01*
X145053504Y-20015392D02*
X144901947Y-20003850D01*
X134794842Y-125183689D02*
X134825586Y-125210082D01*
X147212290Y-93286195D02*
X147122327Y-93163682D01*
X99050000Y-90500000D02*
X99050000Y-89500000D01*
X177291915Y-92186743D02*
X177148089Y-92137582D01*
X116246791Y-124126622D02*
X116250000Y-124000000D01*
X113553504Y-20015392D02*
X113401947Y-20003850D01*
X196750000Y-91251000D02*
X196750000Y-91249000D01*
X162346472Y-89113630D02*
X162387426Y-89104924D01*
X99152742Y-125232348D02*
X99167157Y-125217157D01*
X146572410Y-54121610D02*
X146678170Y-54051908D01*
X99139142Y-53248272D02*
X99152742Y-53232348D01*
X117936743Y-93958084D02*
X117887582Y-94101910D01*
X209704117Y-20723725D02*
X209586317Y-20627672D01*
X182381736Y-54344380D02*
X182501592Y-54385348D01*
X150663107Y-20454067D02*
X150536195Y-20537709D01*
X197899738Y-125305879D02*
X197909121Y-125323842D01*
X149787709Y-93286195D02*
X149704067Y-93413107D01*
X103294842Y-125183689D02*
X103325586Y-125210082D01*
X210670192Y-52626631D02*
X210698824Y-52503246D01*
X117753850Y-22848052D02*
X117750000Y-23000000D01*
X165250000Y-53100000D02*
X166050000Y-53100000D01*
X117936743Y-57958084D02*
X117887582Y-58101910D01*
X193950000Y-53100000D02*
X194750000Y-53100000D01*
X182623368Y-90420192D02*
X182746753Y-90448824D01*
X147373039Y-57544094D02*
X147295932Y-57413107D01*
X176704283Y-92034595D02*
X176553504Y-92015392D01*
X176853895Y-20061410D02*
X176704283Y-20034595D01*
X130698272Y-53189142D02*
X130714886Y-53176393D01*
X146205905Y-92376960D02*
X146071182Y-92306586D01*
X166188922Y-89124899D02*
X166207742Y-89132416D01*
X86853104Y-89628431D02*
X86938018Y-89722417D01*
X87649014Y-90244511D02*
X87764110Y-90297394D01*
X119264110Y-126297394D02*
X119381736Y-126344380D01*
X210612417Y-58101910D02*
X210563256Y-57958084D01*
X208376622Y-54496791D02*
X208502920Y-54487173D01*
X130552191Y-89458188D02*
X130554924Y-89437426D01*
X88946495Y-20015392D02*
X88795716Y-20034595D01*
X134688922Y-125124899D02*
X134707742Y-125132416D01*
X149311410Y-58396104D02*
X149284595Y-58545716D01*
X116188589Y-94396104D02*
X116154231Y-94248042D01*
X114001957Y-92095768D02*
X113853895Y-92061410D01*
X180750000Y-108250000D02*
X180001000Y-108250000D01*
X210146895Y-125628431D02*
X210226939Y-125530264D01*
X87794094Y-56376960D02*
X87663107Y-56454067D01*
X86405619Y-52868263D02*
X86452605Y-52985889D01*
X86278829Y-124378569D02*
X86301175Y-124503246D01*
X151498042Y-56095768D02*
X151351910Y-56137582D01*
X149253208Y-88126622D02*
X149262826Y-88252920D01*
X193806653Y-53126568D02*
X193846472Y-53113630D01*
X87427589Y-126121610D02*
X87536745Y-126185866D01*
X181287709Y-93286195D02*
X181204067Y-93413107D01*
X116154231Y-94248042D02*
X116112417Y-94101910D01*
X118377672Y-57163682D02*
X118287709Y-57286195D01*
X197909121Y-53323842D02*
X197917583Y-53342257D01*
X197688922Y-53124899D02*
X197726157Y-53140878D01*
X147295932Y-93413107D02*
X147212290Y-93286195D01*
X178871610Y-89322410D02*
X178935866Y-89213254D01*
X130626393Y-53264886D02*
X130652742Y-53232348D01*
X130732144Y-125164532D02*
X130750000Y-125153590D01*
X179063256Y-93958084D02*
X179006873Y-93816932D01*
X180750000Y-124000000D02*
X180753208Y-124126622D01*
X118527582Y-89811981D02*
X118621568Y-89896895D01*
X147746149Y-94848052D02*
X147734607Y-94696495D01*
X208791915Y-56186743D02*
X208648089Y-56137582D01*
X179112417Y-22101910D02*
X179063256Y-21958084D01*
X149262826Y-124252920D02*
X149278829Y-124378569D01*
X147750000Y-108250000D02*
X147750000Y-95000000D01*
X119566932Y-20243126D02*
X119428817Y-20306586D01*
X177571182Y-20306586D02*
X177433067Y-20243126D01*
X86436743Y-21958084D02*
X86387582Y-22101910D01*
X163250000Y-56000000D02*
X152250000Y-56000000D01*
X86345768Y-58248042D02*
X86311410Y-58396104D01*
X180778829Y-52378569D02*
X180801175Y-52503246D01*
X88497079Y-90487173D02*
X88623377Y-90496791D01*
X99250000Y-53153590D02*
X99287305Y-53134582D01*
X181005488Y-53100985D02*
X181064133Y-53213254D01*
X103447947Y-53459532D02*
X103450000Y-53500000D01*
X150649014Y-126244511D02*
X150764110Y-126297394D01*
X103409121Y-125323842D02*
X103417583Y-125342257D01*
X151208084Y-92186743D02*
X151066932Y-92243126D01*
X210295932Y-57413107D02*
X210212290Y-57286195D01*
X145628569Y-54471170D02*
X145753246Y-54448824D01*
X179999000Y-72250000D02*
X179250000Y-72250000D01*
X166090467Y-89102052D02*
X166130519Y-89108188D01*
X116198824Y-88503246D02*
X116221170Y-88378569D01*
X179250000Y-74250000D02*
X179999000Y-74250000D01*
X134909121Y-125323842D02*
X134917583Y-125342257D01*
X197688922Y-125124899D02*
X197707742Y-125132416D01*
X148501000Y-38250000D02*
X149250000Y-38250000D01*
X103441811Y-125419480D02*
X103447947Y-125459532D01*
X113250000Y-20000000D02*
X89250000Y-20000000D01*
X119501592Y-126385348D02*
X119623368Y-126420192D01*
X118821829Y-126051908D02*
X118927589Y-126121610D01*
X120295716Y-92034595D02*
X120146104Y-92061410D01*
X99198272Y-89189142D02*
X99214886Y-89176393D01*
X176853895Y-92061410D02*
X176704283Y-92034595D01*
X210698824Y-88503246D02*
X210721170Y-88378569D01*
X151351910Y-92137582D02*
X151208084Y-92186743D01*
X115280264Y-53976939D02*
X115378431Y-53896895D01*
X149787709Y-57286195D02*
X149704067Y-57413107D01*
X86628389Y-89322410D02*
X86698091Y-89428170D01*
X86938018Y-125722417D02*
X87027582Y-125811981D01*
X178072410Y-90121610D02*
X178178170Y-90051908D01*
X149301175Y-52503246D02*
X149329807Y-52626631D01*
X113750000Y-90500000D02*
X113876622Y-90496791D01*
X166130519Y-125108188D02*
X166150261Y-125112769D01*
X147122327Y-21163682D02*
X147026274Y-21045882D01*
X114253246Y-90448824D02*
X114376631Y-90420192D01*
X179135348Y-124748407D02*
X179170192Y-124626631D01*
X149505488Y-125100985D02*
X149564133Y-125213254D01*
X87663107Y-92454067D02*
X87536195Y-92537709D01*
X177836892Y-56454067D02*
X177705905Y-56376960D01*
X194750000Y-55249500D02*
X194750000Y-55251500D01*
X114850985Y-126244511D02*
X114963254Y-126185866D01*
X183295716Y-56034595D02*
X183146104Y-56061410D01*
X178280264Y-89976939D02*
X178378431Y-89896895D01*
X208376622Y-126496791D02*
X208502920Y-126487173D01*
X210026274Y-93045882D02*
X209924378Y-92933099D01*
X193550000Y-54500000D02*
X193550000Y-53500000D01*
X130750000Y-53153590D02*
X130787305Y-53134582D01*
X100250000Y-92000000D02*
X89250000Y-92000000D01*
X209780264Y-125976939D02*
X209878431Y-125896895D01*
X134630519Y-125108188D02*
X134650261Y-125112769D01*
X99054924Y-89437426D02*
X99063630Y-89396472D01*
X166353503Y-89239451D02*
X166378305Y-89271492D01*
X103050000Y-125100000D02*
X103090467Y-125102052D01*
X86311410Y-94396104D02*
X86284595Y-94545716D01*
X150321829Y-126051908D02*
X150427589Y-126121610D01*
X149938018Y-53722417D02*
X150027582Y-53811981D01*
X102250000Y-55251500D02*
X102250000Y-55249500D01*
X149364651Y-88748407D02*
X149405619Y-88868263D01*
X149626960Y-93544094D02*
X149556586Y-93678817D01*
X119036745Y-90185866D02*
X119149014Y-90244511D01*
X181377672Y-93163682D02*
X181287709Y-93286195D01*
X102250000Y-55249500D02*
X102250000Y-53100000D01*
X178943413Y-21678817D02*
X178873039Y-21544094D01*
X86311410Y-58396104D02*
X86284595Y-58545716D01*
X147750000Y-110250000D02*
X148499000Y-110250000D01*
X177963254Y-54185866D02*
X178072410Y-54121610D01*
X119997079Y-126487173D02*
X120123377Y-126496791D01*
X182871430Y-90471170D02*
X182997079Y-90487173D01*
X181719735Y-53976939D02*
X181821829Y-54051908D01*
X103090467Y-53102052D02*
X103110571Y-53104612D01*
X120750000Y-92000000D02*
X120598052Y-92003850D01*
X150881736Y-126344380D02*
X151001592Y-126385348D01*
X152250000Y-56000000D02*
X152098052Y-56003850D01*
X197794842Y-125183689D02*
X197825586Y-125210082D01*
X165250000Y-91251000D02*
X165250000Y-91249000D01*
X178622327Y-93163682D02*
X178526274Y-93045882D01*
X179215404Y-58545716D02*
X179188589Y-58396104D01*
X149564133Y-125213254D02*
X149628389Y-125322410D01*
X178526274Y-21045882D02*
X178424378Y-20933099D01*
X130614532Y-89282144D02*
X130626393Y-89264886D01*
X115646895Y-89628431D02*
X115726939Y-89530264D01*
X117750000Y-88000000D02*
X117753208Y-88126622D01*
X130603590Y-53300000D02*
X130614532Y-53282144D01*
X151001592Y-54385348D02*
X151123368Y-54420192D01*
X210122327Y-57163682D02*
X210026274Y-57045882D01*
X209924378Y-92933099D02*
X209816900Y-92825621D01*
X197744120Y-125150261D02*
X197778507Y-125171694D01*
X146071182Y-20306586D02*
X145933067Y-20243126D01*
X183123377Y-54496791D02*
X183250000Y-54500000D01*
X146350985Y-90244511D02*
X146463254Y-90185866D01*
X182851910Y-56137582D02*
X182708084Y-56186743D01*
X87219735Y-53976939D02*
X87321829Y-54051908D01*
X116135348Y-52748407D02*
X116170192Y-52626631D01*
X87794094Y-20376960D02*
X87663107Y-20454067D01*
X180801175Y-88503246D02*
X180829807Y-88626631D01*
X146235889Y-54297394D02*
X146350985Y-54244511D01*
X197550000Y-125100000D02*
X197590467Y-125102052D01*
X197941811Y-89419480D02*
X197947947Y-89459532D01*
X181795882Y-56723725D02*
X181683099Y-56825621D01*
X116246149Y-22848052D02*
X116234607Y-22696495D01*
X146572410Y-90121610D02*
X146678170Y-90051908D01*
X151246753Y-54448824D02*
X151371430Y-54471170D01*
X166278507Y-125171694D02*
X166294842Y-125183689D01*
X149853104Y-53628431D02*
X149938018Y-53722417D01*
X162050000Y-53500000D02*
X162052191Y-53458188D01*
X166325586Y-125210082D02*
X166353503Y-125239451D01*
X118683099Y-92825621D02*
X118575621Y-92933099D01*
X118005488Y-89100985D02*
X118064133Y-89213254D01*
X182428817Y-92306586D02*
X182294094Y-92376960D01*
X178072410Y-126121610D02*
X178178170Y-126051908D01*
X130846472Y-53113630D02*
X130887426Y-53104924D01*
X115472417Y-53811981D02*
X115561981Y-53722417D01*
X148501000Y-72250000D02*
X148499000Y-72250000D01*
X86628389Y-125322410D02*
X86698091Y-125428170D01*
X116999000Y-74250000D02*
X117001000Y-74250000D01*
X151946495Y-56015392D02*
X151795716Y-56034595D01*
X116063256Y-21958084D02*
X116006873Y-21816932D01*
X177618263Y-54344380D02*
X177735889Y-54297394D01*
X117887582Y-58101910D02*
X117845768Y-58248042D01*
X147734607Y-22696495D02*
X147715404Y-22545716D01*
X134950000Y-90500000D02*
X145250000Y-90500000D01*
X197917583Y-53342257D02*
X197931655Y-53380254D01*
X181064133Y-125213254D02*
X181128389Y-125322410D01*
X162250000Y-125153590D02*
X162268404Y-125143597D01*
X180811410Y-94396104D02*
X180784595Y-94545716D01*
X130593597Y-125318404D02*
X130614532Y-125282144D01*
X149436743Y-93958084D02*
X149387582Y-94101910D01*
X163250000Y-53100000D02*
X163250000Y-55249500D01*
X99050000Y-126500000D02*
X99050000Y-125500000D01*
X146350985Y-126244511D02*
X146463254Y-126185866D01*
X178316900Y-56825621D02*
X178204117Y-56723725D01*
X210146895Y-53628431D02*
X210226939Y-53530264D01*
X179094380Y-52868263D02*
X179135348Y-52748407D01*
X86938018Y-53722417D02*
X87027582Y-53811981D01*
X87881736Y-54344380D02*
X88001592Y-54385348D01*
X178178170Y-54051908D02*
X178280264Y-53976939D01*
X210670192Y-88626631D02*
X210698824Y-88503246D01*
X103450000Y-125500000D02*
X103450000Y-126500000D01*
X115280264Y-125976939D02*
X115378431Y-125896895D01*
X176553504Y-92015392D02*
X176401947Y-92003850D01*
X177735889Y-54297394D02*
X177850985Y-54244511D01*
X100250000Y-91251000D02*
X100250000Y-92000000D01*
X146572410Y-126121610D02*
X146678170Y-126051908D01*
X180993126Y-57816932D02*
X180936743Y-57958084D01*
X115935866Y-53213254D02*
X115994511Y-53100985D01*
X88646104Y-56061410D02*
X88498042Y-56095768D01*
X99054924Y-125437426D02*
X99063630Y-125396472D01*
X87536195Y-92537709D02*
X87413682Y-92627672D01*
X147746791Y-52126622D02*
X147750000Y-52000000D01*
X144750000Y-92000000D02*
X133750000Y-92000000D01*
X120250000Y-126500000D02*
X130550000Y-126500000D01*
X99050000Y-125500000D02*
X99052191Y-125458188D01*
X146336892Y-20454067D02*
X146205905Y-20376960D01*
X210612417Y-22101910D02*
X210563256Y-21958084D01*
X147435866Y-53213254D02*
X147494511Y-53100985D01*
X193750000Y-125153590D02*
X193768404Y-125143597D01*
X146972417Y-53811981D02*
X147061981Y-53722417D01*
X114253246Y-126448824D02*
X114376631Y-126420192D01*
X145204283Y-92034595D02*
X145053504Y-92015392D01*
X116246791Y-52126622D02*
X116250000Y-52000000D01*
X196750000Y-56000000D02*
X196750000Y-55251500D01*
X181064133Y-53213254D02*
X181128389Y-53322410D01*
X193806653Y-125126568D02*
X193846472Y-125113630D01*
X193732144Y-89164532D02*
X193768404Y-89143597D01*
X134550000Y-89100000D02*
X134590467Y-89102052D01*
X120123377Y-126496791D02*
X120250000Y-126500000D01*
X117993126Y-21816932D02*
X117936743Y-21958084D01*
X117765392Y-58696495D02*
X117753850Y-58848052D01*
X88351910Y-92137582D02*
X88208084Y-92186743D01*
X134778507Y-125171694D02*
X134794842Y-125183689D01*
X193639142Y-125248272D02*
X193652742Y-125232348D01*
X120750000Y-56000000D02*
X120598052Y-56003850D01*
X87649014Y-126244511D02*
X87764110Y-126297394D01*
X116170192Y-88626631D02*
X116198824Y-88503246D01*
X99084582Y-89337305D02*
X99093597Y-89318404D01*
X87075621Y-56933099D02*
X86973725Y-57045882D01*
X149853104Y-125628431D02*
X149938018Y-125722417D01*
X149250000Y-124000000D02*
X149253208Y-124126622D01*
X134931655Y-89380254D02*
X134941811Y-89419480D01*
X114850985Y-90244511D02*
X114963254Y-90185866D01*
X151646104Y-92061410D02*
X151498042Y-92095768D01*
X120250000Y-54500000D02*
X130550000Y-54500000D01*
X87295882Y-20723725D02*
X87183099Y-20825621D01*
X147026274Y-57045882D02*
X146924378Y-56933099D01*
X177148089Y-92137582D02*
X177001957Y-92095768D01*
X149436743Y-57958084D02*
X149387582Y-58101910D01*
X182036195Y-56537709D02*
X181913682Y-56627672D01*
X177002920Y-54487173D02*
X177128569Y-54471170D01*
X115526274Y-57045882D02*
X115424378Y-56933099D01*
X150219735Y-89976939D02*
X150321829Y-90051908D01*
X181719735Y-89976939D02*
X181821829Y-90051908D01*
X150219735Y-53976939D02*
X150321829Y-54051908D01*
X180829807Y-52626631D02*
X180864651Y-52748407D01*
X120446495Y-20015392D02*
X120295716Y-20034595D01*
X120598052Y-56003850D02*
X120446495Y-56015392D01*
X149329807Y-52626631D02*
X149364651Y-52748407D01*
X152098052Y-56003850D02*
X151946495Y-56015392D01*
X120146104Y-56061410D02*
X119998042Y-56095768D01*
X99198272Y-53189142D02*
X99214886Y-53176393D01*
X181056586Y-21678817D02*
X180993126Y-21816932D01*
X150219735Y-125976939D02*
X150321829Y-126051908D01*
X130563630Y-89396472D02*
X130569577Y-89376393D01*
X113704283Y-92034595D02*
X113553504Y-92015392D01*
X134950000Y-54500000D02*
X145250000Y-54500000D01*
X144750000Y-20000000D02*
X120750000Y-20000000D01*
X146350985Y-54244511D02*
X146463254Y-54185866D01*
X177963254Y-126185866D02*
X178072410Y-126121610D01*
X145501957Y-20095768D02*
X145353895Y-20061410D01*
X147494511Y-89100985D02*
X147547394Y-88985889D01*
X166441811Y-89419480D02*
X166447947Y-89459532D01*
X131750000Y-91249000D02*
X131750000Y-91251000D01*
X210654231Y-22248042D02*
X210612417Y-22101910D01*
X151497079Y-90487173D02*
X151623377Y-90496791D01*
X147594380Y-124868263D02*
X147635348Y-124748407D01*
X117905619Y-124868263D02*
X117952605Y-124985889D01*
X181683099Y-20825621D02*
X181575621Y-20933099D01*
X210506873Y-21816932D02*
X210443413Y-21678817D01*
X146463254Y-126185866D02*
X146572410Y-126121610D01*
X119746753Y-54448824D02*
X119871430Y-54471170D01*
X181683099Y-56825621D02*
X181575621Y-56933099D01*
X87295882Y-56723725D02*
X87183099Y-56825621D01*
X150536195Y-56537709D02*
X150413682Y-56627672D01*
X118575621Y-92933099D02*
X118473725Y-93045882D01*
X115561981Y-89722417D02*
X115646895Y-89628431D01*
X181927589Y-126121610D02*
X182036745Y-126185866D01*
X114571182Y-92306586D02*
X114433067Y-92243126D01*
X181927589Y-90121610D02*
X182036745Y-90185866D01*
X179188589Y-22396104D02*
X179154231Y-22248042D01*
X182036745Y-54185866D02*
X182149014Y-54244511D01*
X182851910Y-92137582D02*
X182708084Y-92186743D01*
X86301175Y-124503246D02*
X86329807Y-124626631D01*
X149250000Y-88000000D02*
X149253208Y-88126622D01*
X179246149Y-94848052D02*
X179234607Y-94696495D01*
X118821829Y-90051908D02*
X118927589Y-90121610D01*
X147594380Y-52868263D02*
X147635348Y-52748407D01*
X210226939Y-89530264D02*
X210301908Y-89428170D01*
X118683099Y-56825621D02*
X118575621Y-56933099D01*
X162052191Y-125458188D02*
X162054924Y-125437426D01*
X86436743Y-57958084D02*
X86387582Y-58101910D01*
X86877672Y-93163682D02*
X86787709Y-93286195D01*
X177002920Y-126487173D02*
X177128569Y-126471170D01*
X116063256Y-93958084D02*
X116006873Y-93816932D01*
X181527582Y-89811981D02*
X181621568Y-89896895D01*
X118198091Y-53428170D02*
X118273060Y-53530264D01*
X182997079Y-126487173D02*
X183123377Y-126496791D01*
X208501957Y-56095768D02*
X208353895Y-56061410D01*
X181287709Y-57286195D02*
X181204067Y-57413107D01*
X146205905Y-56376960D02*
X146071182Y-56306586D01*
X146678170Y-90051908D02*
X146780264Y-89976939D01*
X115801908Y-125428170D02*
X115871610Y-125322410D01*
X149973725Y-93045882D02*
X149877672Y-93163682D01*
X179006873Y-57816932D02*
X178943413Y-57678817D01*
X88123368Y-126420192D02*
X88246753Y-126448824D01*
X166389457Y-89288414D02*
X166409121Y-89323842D01*
X149278829Y-88378569D02*
X149301175Y-88503246D01*
X210506873Y-93816932D02*
X210443413Y-93678817D01*
X180750000Y-95000000D02*
X180750000Y-108250000D01*
X179198824Y-124503246D02*
X179221170Y-124378569D01*
X147547394Y-88985889D02*
X147594380Y-88868263D01*
X210746791Y-52126622D02*
X210750000Y-52000000D01*
X179246791Y-88126622D02*
X179250000Y-88000000D01*
X86364651Y-88748407D02*
X86405619Y-88868263D01*
X119264110Y-54297394D02*
X119381736Y-54344380D01*
X177376631Y-126420192D02*
X177498407Y-126385348D01*
X162093597Y-125318404D02*
X162114532Y-125282144D01*
X147146895Y-89628431D02*
X147226939Y-89530264D01*
X147443413Y-93678817D02*
X147373039Y-93544094D01*
X133750000Y-91249000D02*
X133750000Y-89100000D01*
X178646895Y-53628431D02*
X178726939Y-53530264D01*
X118353104Y-125628431D02*
X118438018Y-125722417D01*
X183146104Y-20061410D02*
X182998042Y-20095768D01*
X182746753Y-90448824D02*
X182871430Y-90471170D01*
X150183099Y-92825621D02*
X150075621Y-92933099D01*
X99063630Y-125396472D02*
X99076568Y-125356653D01*
X177253246Y-54448824D02*
X177376631Y-54420192D01*
X182036745Y-90185866D02*
X182149014Y-90244511D01*
X116234607Y-22696495D02*
X116215404Y-22545716D01*
X147301908Y-125428170D02*
X147371610Y-125322410D01*
X118473725Y-57045882D02*
X118377672Y-57163682D01*
X181128389Y-89322410D02*
X181198091Y-89428170D01*
X149253850Y-58848052D02*
X149250000Y-59000000D01*
X118621568Y-125896895D02*
X118719735Y-125976939D01*
X87536745Y-54185866D02*
X87649014Y-54244511D01*
X149787709Y-21286195D02*
X149704067Y-21413107D01*
X179237173Y-52252920D02*
X179246791Y-52126622D01*
X197878305Y-53271492D02*
X197899738Y-53305879D01*
X133750000Y-89100000D02*
X134550000Y-89100000D01*
X210547394Y-52985889D02*
X210594380Y-52868263D01*
X130584582Y-125337305D02*
X130593597Y-125318404D01*
X145502920Y-54487173D02*
X145628569Y-54471170D01*
X193550000Y-126500000D02*
X193550000Y-125500000D01*
X115561981Y-125722417D02*
X115646895Y-125628431D01*
X177148089Y-20137582D02*
X177001957Y-20095768D01*
X210061981Y-89722417D02*
X210146895Y-89628431D01*
X166447947Y-53459532D02*
X166450000Y-53500000D01*
X130750000Y-89153590D02*
X130787305Y-89134582D01*
X134941811Y-89419480D02*
X134947947Y-89459532D01*
X162408188Y-89102191D02*
X162450000Y-89100000D01*
X119149014Y-90244511D02*
X119264110Y-90297394D01*
X209336892Y-20454067D02*
X209205905Y-20376960D01*
X149284595Y-22545716D02*
X149265392Y-22696495D01*
X86436743Y-93958084D02*
X86387582Y-94101910D01*
X118473725Y-93045882D02*
X118377672Y-93163682D01*
X147443413Y-57678817D02*
X147373039Y-57544094D01*
X193584582Y-53337305D02*
X193593597Y-53318404D01*
X193887426Y-89104924D02*
X193908188Y-89102191D01*
X134878305Y-89271492D02*
X134889457Y-89288414D01*
X130563630Y-53396472D02*
X130576568Y-53356653D01*
X86626960Y-21544094D02*
X86556586Y-21678817D01*
X176401947Y-92003850D02*
X176250000Y-92000000D01*
X196750000Y-53100000D02*
X197550000Y-53100000D01*
X120146104Y-20061410D02*
X119998042Y-20095768D01*
X197707742Y-89132416D02*
X197744120Y-89150261D01*
X178994511Y-89100985D02*
X179047394Y-88985889D01*
X99167157Y-53217157D02*
X99198272Y-53189142D01*
X117753208Y-124126622D02*
X117762826Y-124252920D01*
X115316900Y-56825621D02*
X115204117Y-56723725D01*
X194750000Y-55251500D02*
X194750000Y-56000000D01*
X162450000Y-89100000D02*
X163250000Y-89100000D01*
X146816900Y-20825621D02*
X146704117Y-20723725D01*
X118204067Y-57413107D02*
X118126960Y-57544094D01*
X197853503Y-53239451D02*
X197878305Y-53271492D01*
X130768404Y-125143597D02*
X130806653Y-125126568D01*
X103310548Y-53196496D02*
X103339917Y-53224413D01*
X88795716Y-56034595D02*
X88646104Y-56061410D01*
X197669745Y-125118344D02*
X197688922Y-125124899D01*
X210721170Y-88378569D02*
X210737173Y-88252920D01*
X118128389Y-89322410D02*
X118198091Y-89428170D01*
X182381736Y-90344380D02*
X182501592Y-90385348D01*
X86556586Y-57678817D02*
X86493126Y-57816932D01*
X114433067Y-56243126D02*
X114291915Y-56186743D01*
X178801908Y-125428170D02*
X178871610Y-125322410D01*
X147750000Y-59000000D02*
X147746149Y-58848052D01*
X147506873Y-57816932D02*
X147443413Y-57678817D01*
X89098052Y-92003850D02*
X88946495Y-92015392D01*
X146972417Y-89811981D02*
X147061981Y-89722417D01*
X99408188Y-53102191D02*
X99450000Y-53100000D01*
X181719735Y-125976939D02*
X181821829Y-126051908D01*
X117765392Y-94696495D02*
X117753850Y-94848052D01*
X150427589Y-54121610D02*
X150536745Y-54185866D01*
X130652742Y-125232348D02*
X130667157Y-125217157D01*
X144901947Y-92003850D02*
X144750000Y-92000000D01*
X103389457Y-53288414D02*
X103409121Y-53323842D01*
X210301908Y-125428170D02*
X210371610Y-125322410D01*
X149628389Y-89322410D02*
X149698091Y-89428170D01*
X210295932Y-21413107D02*
X210212290Y-21286195D01*
X116237173Y-124252920D02*
X116246791Y-124126622D01*
X166431655Y-89380254D02*
X166441811Y-89419480D01*
X208648089Y-56137582D02*
X208501957Y-56095768D01*
X210443413Y-93678817D02*
X210373039Y-93544094D01*
X162076568Y-125356653D02*
X162084582Y-125337305D01*
X177433067Y-92243126D02*
X177291915Y-92186743D01*
X209118263Y-126344380D02*
X209235889Y-126297394D01*
X180784595Y-94545716D02*
X180765392Y-94696495D01*
X178935866Y-125213254D02*
X178994511Y-125100985D01*
X151795716Y-20034595D02*
X151646104Y-20061410D01*
X87413682Y-92627672D02*
X87295882Y-92723725D01*
X209350985Y-90244511D02*
X209463254Y-90185866D01*
X183750000Y-56000000D02*
X183598052Y-56003850D01*
X166339917Y-53224413D02*
X166353503Y-53239451D01*
X99126393Y-89264886D02*
X99152742Y-89232348D01*
X146780264Y-53976939D02*
X146878431Y-53896895D01*
X210734607Y-58696495D02*
X210715404Y-58545716D01*
X208250000Y-90500000D02*
X208376622Y-90496791D01*
X147721170Y-124378569D02*
X147737173Y-124252920D01*
X181821829Y-54051908D02*
X181927589Y-54121610D01*
X146924378Y-92933099D02*
X146816900Y-92825621D01*
X180750000Y-72250000D02*
X180001000Y-72250000D01*
X117753850Y-58848052D02*
X117750000Y-59000000D01*
X178086317Y-92627672D02*
X177963804Y-92537709D01*
X115801908Y-89428170D02*
X115871610Y-89322410D01*
X209205905Y-56376960D02*
X209071182Y-56306586D01*
X114376631Y-126420192D02*
X114498407Y-126385348D01*
X193550000Y-89500000D02*
X193552191Y-89458188D01*
X100250000Y-53100000D02*
X100250000Y-55249500D01*
X119997079Y-90487173D02*
X120123377Y-90496791D01*
X179221170Y-88378569D02*
X179237173Y-88252920D01*
X118287709Y-21286195D02*
X118204067Y-21413107D01*
X179250000Y-52000000D02*
X179250000Y-38250000D01*
X193908188Y-53102191D02*
X193950000Y-53100000D01*
X209572410Y-54121610D02*
X209678170Y-54051908D01*
X103437230Y-89399738D02*
X103441811Y-89419480D01*
X99114532Y-53282144D02*
X99139142Y-53248272D01*
X118621568Y-89896895D02*
X118719735Y-89976939D01*
X147563256Y-93958084D02*
X147506873Y-93816932D01*
X180845768Y-94248042D02*
X180811410Y-94396104D01*
X176401947Y-56003850D02*
X176250000Y-56000000D01*
X118473725Y-21045882D02*
X118377672Y-21163682D01*
X166226157Y-53140878D02*
X166244120Y-53150261D01*
X130652742Y-53232348D02*
X130667157Y-53217157D01*
X86311410Y-22396104D02*
X86284595Y-22545716D01*
X114291915Y-20186743D02*
X114148089Y-20137582D01*
X86973725Y-21045882D02*
X86877672Y-21163682D01*
X114735889Y-90297394D02*
X114850985Y-90244511D01*
X181575621Y-20933099D02*
X181473725Y-21045882D01*
X86253208Y-88126622D02*
X86262826Y-88252920D01*
X162387426Y-53104924D02*
X162408188Y-53102191D01*
X181204067Y-21413107D02*
X181126960Y-21544094D01*
X147750000Y-124000000D02*
X147750000Y-110250000D01*
X180750000Y-23000000D02*
X180750000Y-36250000D01*
X180753208Y-52126622D02*
X180762826Y-52252920D01*
X147122327Y-93163682D02*
X147026274Y-93045882D01*
X116112417Y-22101910D02*
X116063256Y-21958084D01*
X182746753Y-126448824D02*
X182871430Y-126471170D01*
X181621568Y-89896895D02*
X181719735Y-89976939D01*
X145250000Y-90500000D02*
X145376622Y-90496791D01*
X162069577Y-89376393D02*
X162084582Y-89337305D01*
X178622327Y-57163682D02*
X178526274Y-57045882D01*
X181005488Y-125100985D02*
X181064133Y-125213254D01*
X151795716Y-56034595D02*
X151646104Y-56061410D01*
X117750000Y-59000000D02*
X117750000Y-72250000D01*
X146463254Y-54185866D02*
X146572410Y-54121610D01*
X86626960Y-57544094D02*
X86556586Y-57678817D01*
X119381736Y-90344380D02*
X119501592Y-90385348D01*
X114253246Y-54448824D02*
X114376631Y-54420192D01*
X209350985Y-126244511D02*
X209463254Y-126185866D01*
X162103590Y-89300000D02*
X162114532Y-89282144D01*
X210635348Y-88748407D02*
X210670192Y-88626631D01*
X117784595Y-94545716D02*
X117765392Y-94696495D01*
X209586317Y-56627672D02*
X209463804Y-56537709D01*
X116006873Y-93816932D02*
X115943413Y-93678817D01*
X145998407Y-126385348D02*
X146118263Y-126344380D01*
X134726157Y-53140878D02*
X134761585Y-53160542D01*
X193554924Y-125437426D02*
X193563630Y-125396472D01*
X86493126Y-57816932D02*
X86436743Y-57958084D01*
X116047394Y-88985889D02*
X116094380Y-88868263D01*
X145648089Y-20137582D02*
X145501957Y-20095768D01*
X115204117Y-92723725D02*
X115086317Y-92627672D01*
X149626960Y-57544094D02*
X149556586Y-57678817D01*
X87321829Y-54051908D02*
X87427589Y-54121610D01*
X103431655Y-53380254D02*
X103441811Y-53419480D01*
X181273060Y-53530264D02*
X181353104Y-53628431D01*
X193614532Y-53282144D02*
X193639142Y-53248272D01*
X178424378Y-56933099D02*
X178316900Y-56825621D01*
X166441811Y-53419480D02*
X166447947Y-53459532D01*
X103278507Y-89171694D02*
X103310548Y-89196496D01*
X162250000Y-89153590D02*
X162287305Y-89134582D01*
X179063256Y-57958084D02*
X179006873Y-57816932D01*
X177850985Y-126244511D02*
X177963254Y-126185866D01*
X162167157Y-89217157D02*
X162198272Y-89189142D01*
X86265392Y-94696495D02*
X86253850Y-94848052D01*
X147670192Y-88626631D02*
X147698824Y-88503246D01*
X116215404Y-58545716D02*
X116188589Y-58396104D01*
X180750000Y-110250000D02*
X180750000Y-124000000D01*
X103188922Y-89124899D02*
X103207742Y-89132416D01*
X145753246Y-90448824D02*
X145876631Y-90420192D01*
X115316900Y-20825621D02*
X115204117Y-20723725D01*
X114705905Y-56376960D02*
X114571182Y-56306586D01*
X178561981Y-89722417D02*
X178646895Y-89628431D01*
X116250000Y-108250000D02*
X116250000Y-95000000D01*
X119294094Y-92376960D02*
X119163107Y-92454067D01*
X182381736Y-126344380D02*
X182501592Y-126385348D01*
X86262826Y-124252920D02*
X86278829Y-124378569D01*
X117750000Y-23000000D02*
X117750000Y-36250000D01*
X197744120Y-53150261D02*
X197778507Y-53171694D01*
X103450000Y-90500000D02*
X113750000Y-90500000D01*
X149250000Y-36250000D02*
X148501000Y-36250000D01*
X210212290Y-21286195D02*
X210122327Y-21163682D01*
X180801175Y-124503246D02*
X180829807Y-124626631D01*
X147654231Y-94248042D02*
X147612417Y-94101910D01*
X197610571Y-89104612D02*
X197650261Y-89112769D01*
X147563256Y-21958084D02*
X147506873Y-21816932D01*
X193732144Y-53164532D02*
X193768404Y-53143597D01*
X115943413Y-21678817D02*
X115873039Y-21544094D01*
X116237173Y-52252920D02*
X116246791Y-52126622D01*
X149262826Y-52252920D02*
X149278829Y-52378569D01*
X181913682Y-20627672D02*
X181795882Y-20723725D01*
X177850985Y-90244511D02*
X177963254Y-90185866D01*
X180993126Y-93816932D02*
X180936743Y-93958084D01*
X209878431Y-125896895D02*
X209972417Y-125811981D01*
X119428817Y-92306586D02*
X119294094Y-92376960D01*
X193698272Y-89189142D02*
X193732144Y-89164532D01*
X197825586Y-89210082D02*
X197853503Y-89239451D01*
X147563256Y-57958084D02*
X147506873Y-57816932D01*
X115712290Y-57286195D02*
X115622327Y-57163682D01*
X179006873Y-21816932D02*
X178943413Y-21678817D01*
X103207742Y-89132416D02*
X103244120Y-89150261D01*
X118198091Y-125428170D02*
X118273060Y-125530264D01*
X117762826Y-124252920D02*
X117778829Y-124378569D01*
X88123368Y-54420192D02*
X88246753Y-54448824D01*
X117778829Y-88378569D02*
X117801175Y-88503246D01*
X209235889Y-126297394D02*
X209350985Y-126244511D01*
X176250000Y-92000000D02*
X165250000Y-92000000D01*
X210688589Y-22396104D02*
X210654231Y-22248042D01*
X99114532Y-89282144D02*
X99126393Y-89264886D01*
X209678170Y-90051908D02*
X209780264Y-89976939D01*
X103399738Y-125305879D02*
X103409121Y-125323842D01*
X180778829Y-88378569D02*
X180801175Y-88503246D01*
X197878305Y-125271492D02*
X197899738Y-125305879D01*
X130584582Y-89337305D02*
X130593597Y-89318404D01*
X115378431Y-53896895D02*
X115472417Y-53811981D01*
X114376631Y-90420192D02*
X114498407Y-90385348D01*
X180001000Y-38250000D02*
X180750000Y-38250000D01*
X209972417Y-89811981D02*
X210061981Y-89722417D01*
X117829807Y-124626631D02*
X117864651Y-124748407D01*
X178526274Y-57045882D02*
X178424378Y-56933099D01*
X181927589Y-54121610D02*
X182036745Y-54185866D01*
X209816900Y-56825621D02*
X209704117Y-56723725D01*
X117887582Y-94101910D02*
X117845768Y-94248042D01*
X178378431Y-125896895D02*
X178472417Y-125811981D01*
X87928817Y-92306586D02*
X87794094Y-92376960D01*
X116198824Y-52503246D02*
X116221170Y-52378569D01*
X151646104Y-20061410D02*
X151498042Y-20095768D01*
X133750000Y-91251000D02*
X133750000Y-91249000D01*
X119036745Y-126185866D02*
X119149014Y-126244511D01*
X208648089Y-20137582D02*
X208501957Y-20095768D01*
X180887582Y-22101910D02*
X180845768Y-22248042D01*
X178472417Y-89811981D02*
X178561981Y-89722417D01*
X197778507Y-53171694D02*
X197794842Y-53183689D01*
X149628389Y-53322410D02*
X149698091Y-53428170D01*
X183446495Y-56015392D02*
X183295716Y-56034595D01*
X88246753Y-126448824D02*
X88371430Y-126471170D01*
X166378305Y-53271492D02*
X166389457Y-53288414D01*
X209463254Y-90185866D02*
X209572410Y-90121610D01*
X116250000Y-23000000D02*
X116246149Y-22848052D01*
X182566932Y-56243126D02*
X182428817Y-56306586D01*
X210721170Y-52378569D02*
X210737173Y-52252920D01*
X181273060Y-125530264D02*
X181353104Y-125628431D01*
X178204117Y-92723725D02*
X178086317Y-92627672D01*
X208648089Y-92137582D02*
X208501957Y-92095768D01*
X176704283Y-20034595D02*
X176553504Y-20015392D01*
X193908188Y-89102191D02*
X193950000Y-89100000D01*
X181128389Y-53322410D02*
X181198091Y-53428170D01*
X149250000Y-108250000D02*
X148501000Y-108250000D01*
X150764110Y-126297394D02*
X150881736Y-126344380D01*
X114618263Y-54344380D02*
X114735889Y-54297394D01*
X178204117Y-20723725D02*
X178086317Y-20627672D01*
X181913682Y-56627672D02*
X181795882Y-56723725D01*
X210435866Y-53213254D02*
X210494511Y-53100985D01*
X118128389Y-53322410D02*
X118198091Y-53428170D01*
X152098052Y-20003850D02*
X151946495Y-20015392D01*
X178726939Y-89530264D02*
X178801908Y-89428170D01*
X120295716Y-20034595D02*
X120146104Y-20061410D01*
X103431655Y-125380254D02*
X103441811Y-125419480D01*
X150027582Y-125811981D02*
X150121568Y-125896895D01*
X197650261Y-53112769D02*
X197688922Y-53124899D01*
X180750000Y-59000000D02*
X180750000Y-72250000D01*
X115943413Y-93678817D02*
X115873039Y-93544094D01*
X130552191Y-53458188D02*
X130554924Y-53437426D01*
X99093597Y-125318404D02*
X99114532Y-125282144D01*
X197931655Y-53380254D02*
X197941811Y-53419480D01*
X86364651Y-52748407D02*
X86405619Y-52868263D01*
X182264110Y-90297394D02*
X182381736Y-90344380D01*
X146235889Y-126297394D02*
X146350985Y-126244511D01*
X178280264Y-53976939D02*
X178378431Y-53896895D01*
X149493126Y-93816932D02*
X149436743Y-93958084D01*
X131750000Y-56000000D02*
X120750000Y-56000000D01*
X147373039Y-93544094D02*
X147295932Y-93413107D01*
X179237173Y-124252920D02*
X179246791Y-124126622D01*
X193768404Y-89143597D02*
X193787305Y-89134582D01*
X117864651Y-124748407D02*
X117905619Y-124868263D01*
X103090467Y-125102052D02*
X103130519Y-125108188D01*
X162063630Y-125396472D02*
X162076568Y-125356653D01*
X114128569Y-90471170D02*
X114253246Y-90448824D01*
X193887426Y-53104924D02*
X193908188Y-53102191D01*
X210750000Y-88000000D02*
X210750000Y-59000000D01*
X119149014Y-126244511D02*
X119264110Y-126297394D01*
X165250000Y-89100000D02*
X166050000Y-89100000D01*
X147715404Y-22545716D02*
X147688589Y-22396104D01*
X146463804Y-20537709D02*
X146336892Y-20454067D01*
X120123377Y-90496791D02*
X120250000Y-90500000D01*
X183446495Y-20015392D02*
X183295716Y-20034595D01*
X116234607Y-58696495D02*
X116215404Y-58545716D01*
X130554924Y-89437426D02*
X130563630Y-89396472D01*
X208933067Y-20243126D02*
X208791915Y-20186743D01*
X88208084Y-92186743D02*
X88066932Y-92243126D01*
X117887582Y-22101910D02*
X117845768Y-22248042D01*
X86505488Y-89100985D02*
X86564133Y-89213254D01*
X162152742Y-125232348D02*
X162167157Y-125217157D01*
X150121568Y-125896895D02*
X150219735Y-125976939D01*
X210737173Y-88252920D02*
X210746791Y-88126622D01*
X162084582Y-89337305D02*
X162103590Y-89300000D01*
X210026274Y-21045882D02*
X209924378Y-20933099D01*
X149564133Y-53213254D02*
X149628389Y-53322410D01*
X151246753Y-126448824D02*
X151371430Y-126471170D01*
X179999000Y-74250000D02*
X180001000Y-74250000D01*
X210737173Y-124252920D02*
X210746791Y-124126622D01*
X89250000Y-56000000D02*
X89098052Y-56003850D01*
X181527582Y-53811981D02*
X181621568Y-53896895D01*
X149387582Y-58101910D02*
X149345768Y-58248042D01*
X114735889Y-54297394D02*
X114850985Y-54244511D01*
X147371610Y-89322410D02*
X147435866Y-89213254D01*
X120598052Y-92003850D02*
X120446495Y-92015392D01*
X151123368Y-54420192D02*
X151246753Y-54448824D01*
X148499000Y-110250000D02*
X148501000Y-110250000D01*
X102250000Y-89100000D02*
X103050000Y-89100000D01*
X179188589Y-58396104D02*
X179154231Y-58248042D01*
X193698272Y-53189142D02*
X193732144Y-53164532D01*
X99093597Y-53318404D02*
X99114532Y-53282144D01*
X193639142Y-89248272D02*
X193667157Y-89217157D01*
X130550000Y-54500000D02*
X130550000Y-53500000D01*
X86493126Y-93816932D02*
X86436743Y-93958084D01*
X207901947Y-56003850D02*
X207750000Y-56000000D01*
X116234607Y-94696495D02*
X116215404Y-94545716D01*
X115072410Y-90121610D02*
X115178170Y-90051908D01*
X210670192Y-124626631D02*
X210698824Y-124503246D01*
X119149014Y-54244511D02*
X119264110Y-54297394D01*
X162387426Y-125104924D02*
X162408188Y-125102191D01*
X210563256Y-21958084D02*
X210506873Y-21816932D01*
X88351910Y-20137582D02*
X88208084Y-20186743D01*
X113876622Y-90496791D02*
X114002920Y-90487173D01*
X180784595Y-22545716D02*
X180765392Y-22696495D01*
X209780264Y-89976939D02*
X209878431Y-89896895D01*
X180765392Y-22696495D02*
X180753850Y-22848052D01*
X88750000Y-126500000D02*
X99050000Y-126500000D01*
X176553504Y-56015392D02*
X176401947Y-56003850D01*
X181126960Y-57544094D02*
X181056586Y-57678817D01*
X145502920Y-90487173D02*
X145628569Y-90471170D01*
X103450000Y-53500000D02*
X103450000Y-54500000D01*
X99250000Y-125153590D02*
X99268404Y-125143597D01*
X117952605Y-88985889D02*
X118005488Y-89100985D01*
X87427589Y-54121610D02*
X87536745Y-54185866D01*
X176853895Y-56061410D02*
X176704283Y-56034595D01*
X181527582Y-125811981D02*
X181621568Y-125896895D01*
X151351910Y-20137582D02*
X151208084Y-20186743D01*
X180765392Y-94696495D02*
X180753850Y-94848052D01*
X119998042Y-56095768D02*
X119851910Y-56137582D01*
X193563630Y-125396472D02*
X193576568Y-125356653D01*
X118005488Y-53100985D02*
X118064133Y-53213254D01*
X119998042Y-92095768D02*
X119851910Y-92137582D01*
X119036195Y-20537709D02*
X118913682Y-20627672D01*
X208753246Y-90448824D02*
X208876631Y-90420192D01*
X162408188Y-53102191D02*
X162450000Y-53100000D01*
X86704067Y-21413107D02*
X86626960Y-21544094D01*
X208998407Y-54385348D02*
X209118263Y-54344380D01*
X183295716Y-92034595D02*
X183146104Y-92061410D01*
X86329807Y-88626631D02*
X86364651Y-88748407D01*
X197853503Y-125239451D02*
X197878305Y-125271492D01*
X151946495Y-20015392D02*
X151795716Y-20034595D01*
X183146104Y-56061410D02*
X182998042Y-56095768D01*
X116250000Y-36250000D02*
X116250000Y-23000000D01*
X196750000Y-55249500D02*
X196750000Y-53100000D01*
X103188922Y-53124899D02*
X103226157Y-53140878D01*
X178561981Y-53722417D02*
X178646895Y-53628431D01*
X193576568Y-125356653D02*
X193584582Y-125337305D01*
X197570259Y-89100513D02*
X197610571Y-89104612D01*
X147654231Y-58248042D02*
X147612417Y-58101910D01*
X147670192Y-52626631D02*
X147698824Y-52503246D01*
X149250000Y-23000000D02*
X149250000Y-36250000D01*
X180936743Y-93958084D02*
X180887582Y-94101910D01*
X180001000Y-74250000D02*
X180750000Y-74250000D01*
X180778829Y-124378569D02*
X180801175Y-124503246D01*
X117778829Y-124378569D02*
X117801175Y-124503246D01*
X150075621Y-56933099D02*
X149973725Y-57045882D01*
X119163107Y-20454067D02*
X119036195Y-20537709D01*
X149773060Y-53530264D02*
X149853104Y-53628431D01*
X115072410Y-126121610D02*
X115178170Y-126051908D01*
X130550000Y-126500000D02*
X130550000Y-125500000D01*
X177253246Y-90448824D02*
X177376631Y-90420192D01*
X86250000Y-124000000D02*
X86253208Y-124126622D01*
X166110571Y-53104612D02*
X166150261Y-53112769D01*
X145376622Y-90496791D02*
X145502920Y-90487173D01*
X152098052Y-92003850D02*
X151946495Y-92015392D01*
X180829807Y-124626631D02*
X180864651Y-124748407D01*
X194750000Y-89100000D02*
X194750000Y-91249000D01*
X209704117Y-92723725D02*
X209586317Y-92627672D01*
X86301175Y-88503246D02*
X86329807Y-88626631D01*
X119746753Y-126448824D02*
X119871430Y-126471170D01*
X183123377Y-90496791D02*
X183250000Y-90500000D01*
X117864651Y-52748407D02*
X117905619Y-52868263D01*
X210212290Y-57286195D02*
X210122327Y-57163682D01*
X120446495Y-56015392D02*
X120295716Y-56034595D01*
X150075621Y-92933099D02*
X149973725Y-93045882D01*
X166441811Y-125419480D02*
X166447947Y-125459532D01*
X119036195Y-56537709D02*
X118913682Y-56627672D01*
X116999000Y-36250000D02*
X116250000Y-36250000D01*
X115873039Y-21544094D02*
X115795932Y-21413107D01*
X115526274Y-21045882D02*
X115424378Y-20933099D01*
X99076568Y-53356653D02*
X99084582Y-53337305D01*
X162387426Y-89104924D02*
X162408188Y-89102191D01*
X119294094Y-56376960D02*
X119163107Y-56454067D01*
X134950000Y-126500000D02*
X145250000Y-126500000D01*
X181126960Y-21544094D02*
X181056586Y-21678817D01*
X151497079Y-126487173D02*
X151623377Y-126496791D01*
X133750000Y-56000000D02*
X133750000Y-55251500D01*
X113401947Y-92003850D02*
X113250000Y-92000000D01*
X197726157Y-53140878D02*
X197744120Y-53150261D01*
X210734607Y-94696495D02*
X210715404Y-94545716D01*
X130576568Y-53356653D02*
X130584582Y-53337305D01*
X150928817Y-20306586D02*
X150794094Y-20376960D01*
X149250000Y-38250000D02*
X149250000Y-52000000D01*
X119566932Y-92243126D02*
X119428817Y-92306586D01*
X179154231Y-22248042D02*
X179112417Y-22101910D01*
X179154231Y-58248042D02*
X179112417Y-58101910D01*
X116006873Y-57816932D02*
X115943413Y-57678817D01*
X86284595Y-94545716D02*
X86265392Y-94696495D01*
X118438018Y-125722417D02*
X118527582Y-125811981D01*
X134778507Y-89171694D02*
X134810548Y-89196496D01*
X117784595Y-58545716D02*
X117765392Y-58696495D01*
X210061981Y-125722417D02*
X210146895Y-125628431D01*
X180811410Y-58396104D02*
X180784595Y-58545716D01*
X103378305Y-89271492D02*
X103399738Y-89305879D01*
X102250000Y-53100000D02*
X103050000Y-53100000D01*
X147635348Y-52748407D02*
X147670192Y-52626631D01*
X210750000Y-23000000D02*
X210746149Y-22848052D01*
X99052191Y-53458188D02*
X99058741Y-53416835D01*
X114376631Y-54420192D02*
X114498407Y-54385348D01*
X179112417Y-94101910D02*
X179063256Y-93958084D01*
X150663107Y-92454067D02*
X150536195Y-92537709D01*
X196750000Y-91249000D02*
X196750000Y-89100000D01*
X176876622Y-90496791D02*
X177002920Y-90487173D01*
X210371610Y-53322410D02*
X210435866Y-53213254D01*
X149704067Y-57413107D02*
X149626960Y-57544094D01*
X182998042Y-92095768D02*
X182851910Y-92137582D01*
X145250000Y-54500000D02*
X145376622Y-54496791D01*
X149284595Y-58545716D02*
X149265392Y-58696495D01*
X130806653Y-89126568D02*
X130846472Y-89113630D01*
X102250000Y-92000000D02*
X102250000Y-91251000D01*
X116250000Y-110250000D02*
X116999000Y-110250000D01*
X120250000Y-90500000D02*
X130550000Y-90500000D01*
X182998042Y-56095768D02*
X182851910Y-56137582D01*
X86262826Y-52252920D02*
X86278829Y-52378569D01*
X119501592Y-90385348D02*
X119623368Y-90420192D01*
X118353104Y-89628431D02*
X118438018Y-89722417D01*
X134825586Y-125210082D02*
X134853503Y-125239451D01*
X180829807Y-88626631D02*
X180864651Y-88748407D01*
X148501000Y-36250000D02*
X148499000Y-36250000D01*
X166150261Y-53112769D02*
X166188922Y-53124899D01*
X145353895Y-56061410D02*
X145204283Y-56034595D01*
X151946495Y-92015392D02*
X151795716Y-92034595D01*
X115726939Y-89530264D02*
X115801908Y-89428170D01*
X177963254Y-90185866D02*
X178072410Y-90121610D01*
X88371430Y-54471170D02*
X88497079Y-54487173D01*
X151371430Y-54471170D02*
X151497079Y-54487173D01*
X146704117Y-20723725D02*
X146586317Y-20627672D01*
X86405619Y-124868263D02*
X86452605Y-124985889D01*
X86493126Y-21816932D02*
X86436743Y-21958084D01*
X115871610Y-125322410D02*
X115935866Y-125213254D01*
X147506873Y-21816932D02*
X147443413Y-21678817D01*
X180905619Y-124868263D02*
X180952605Y-124985889D01*
X166090467Y-125102052D02*
X166130519Y-125108188D01*
X162152742Y-89232348D02*
X162167157Y-89217157D01*
X179170192Y-88626631D02*
X179198824Y-88503246D01*
X116250000Y-124000000D02*
X116250000Y-110250000D01*
X115424378Y-92933099D02*
X115316900Y-92825621D01*
X162050000Y-125500000D02*
X162052191Y-125458188D01*
X118198091Y-89428170D02*
X118273060Y-89530264D01*
X162214886Y-89176393D02*
X162250000Y-89153590D01*
X115178170Y-54051908D02*
X115280264Y-53976939D01*
X118527582Y-125811981D02*
X118621568Y-125896895D01*
X130887426Y-89104924D02*
X130908188Y-89102191D01*
X150536745Y-54185866D02*
X150649014Y-54244511D01*
X88946495Y-56015392D02*
X88795716Y-56034595D01*
X182036195Y-20537709D02*
X181913682Y-20627672D01*
X149773060Y-125530264D02*
X149853104Y-125628431D01*
X179250000Y-88000000D02*
X179250000Y-74250000D01*
X177376631Y-54420192D02*
X177498407Y-54385348D01*
X179047394Y-124985889D02*
X179094380Y-124868263D01*
X103278507Y-53171694D02*
X103310548Y-53196496D01*
X133750000Y-55251500D02*
X133750000Y-55249500D01*
X118287709Y-57286195D02*
X118204067Y-57413107D01*
X149698091Y-125428170D02*
X149773060Y-125530264D01*
X193787305Y-53134582D02*
X193806653Y-53126568D01*
X149345768Y-94248042D02*
X149311410Y-94396104D01*
X115622327Y-93163682D02*
X115526274Y-93045882D01*
X99268404Y-125143597D02*
X99306653Y-125126568D01*
X181128389Y-125322410D02*
X181198091Y-125428170D01*
X179006873Y-93816932D02*
X178943413Y-93678817D01*
X151498042Y-20095768D02*
X151351910Y-20137582D01*
X182264110Y-126297394D02*
X182381736Y-126344380D01*
X88066932Y-56243126D02*
X87928817Y-56306586D01*
X180811410Y-22396104D02*
X180784595Y-22545716D01*
X149405619Y-88868263D02*
X149452605Y-88985889D01*
X209878431Y-53896895D02*
X209972417Y-53811981D01*
X208053504Y-56015392D02*
X207901947Y-56003850D01*
X150764110Y-54297394D02*
X150881736Y-54344380D01*
X182708084Y-92186743D02*
X182566932Y-92243126D01*
X99050000Y-53500000D02*
X99052191Y-53458188D01*
X99052191Y-89458188D02*
X99054924Y-89437426D01*
X163250000Y-89100000D02*
X163250000Y-91249000D01*
X134839917Y-89224413D02*
X134853503Y-89239451D01*
X115178170Y-126051908D02*
X115280264Y-125976939D01*
X145753246Y-126448824D02*
X145876631Y-126420192D01*
X197947947Y-53459532D02*
X197950000Y-53500000D01*
X146704117Y-56723725D02*
X146586317Y-56627672D01*
X100250000Y-89100000D02*
X100250000Y-91249000D01*
X103050000Y-53100000D02*
X103090467Y-53102052D01*
X145053504Y-56015392D02*
X144901947Y-56003850D01*
X86250000Y-52000000D02*
X86253208Y-52126622D01*
X208876631Y-54420192D02*
X208998407Y-54385348D01*
X114128569Y-126471170D02*
X114253246Y-126448824D01*
X103244120Y-125150261D02*
X103278507Y-125171694D01*
X144750000Y-56000000D02*
X133750000Y-56000000D01*
X116999000Y-110250000D02*
X117001000Y-110250000D01*
X130614532Y-53282144D02*
X130626393Y-53264886D01*
X103226157Y-53140878D02*
X103261585Y-53160542D01*
X86505488Y-53100985D02*
X86564133Y-53213254D01*
X149877672Y-57163682D02*
X149787709Y-57286195D01*
X165250000Y-56000000D02*
X165250000Y-55251500D01*
X162198272Y-125189142D02*
X162232144Y-125164532D01*
X120446495Y-92015392D02*
X120295716Y-92034595D01*
X181056586Y-93678817D02*
X180993126Y-93816932D01*
X180001000Y-72250000D02*
X179999000Y-72250000D01*
X116188589Y-22396104D02*
X116154231Y-22248042D01*
X86345768Y-94248042D02*
X86311410Y-94396104D01*
X209463804Y-20537709D02*
X209336892Y-20454067D01*
X115472417Y-89811981D02*
X115561981Y-89722417D01*
X87427589Y-90121610D02*
X87536745Y-90185866D01*
X114433067Y-92243126D02*
X114291915Y-92186743D01*
X115801908Y-53428170D02*
X115871610Y-53322410D01*
X103409121Y-53323842D02*
X103417583Y-53342257D01*
X118719735Y-89976939D02*
X118821829Y-90051908D01*
X115795932Y-93413107D02*
X115712290Y-93286195D01*
X178873039Y-93544094D02*
X178795932Y-93413107D01*
X208876631Y-126420192D02*
X208998407Y-126385348D01*
X119851910Y-92137582D02*
X119708084Y-92186743D01*
X197950000Y-90500000D02*
X208250000Y-90500000D01*
X113553504Y-56015392D02*
X113401947Y-56003850D01*
X209350985Y-54244511D02*
X209463254Y-54185866D01*
X197917583Y-125342257D02*
X197931655Y-125380254D01*
X99084582Y-125337305D02*
X99093597Y-125318404D01*
X178801908Y-89428170D02*
X178871610Y-89322410D01*
X114705905Y-20376960D02*
X114571182Y-20306586D01*
X166409121Y-89323842D02*
X166425100Y-89361077D01*
X103325586Y-89210082D02*
X103353503Y-89239451D01*
X117801175Y-124503246D02*
X117829807Y-124626631D01*
X119708084Y-56186743D02*
X119566932Y-56243126D01*
X147698824Y-124503246D02*
X147721170Y-124378569D01*
X208628569Y-54471170D02*
X208753246Y-54448824D01*
X115086317Y-92627672D02*
X114963804Y-92537709D01*
X86556586Y-93678817D02*
X86493126Y-93816932D01*
X115424378Y-56933099D02*
X115316900Y-56825621D01*
X209205905Y-20376960D02*
X209071182Y-20306586D01*
X162139142Y-125248272D02*
X162152742Y-125232348D01*
X178280264Y-125976939D02*
X178378431Y-125896895D01*
X210435866Y-89213254D02*
X210494511Y-89100985D01*
X162408188Y-125102191D02*
X162450000Y-125100000D01*
X149452605Y-52985889D02*
X149505488Y-53100985D01*
X181473725Y-21045882D02*
X181377672Y-21163682D01*
X210635348Y-52748407D02*
X210670192Y-52626631D01*
X166450000Y-89500000D02*
X166450000Y-90500000D01*
X147635348Y-88748407D02*
X147670192Y-88626631D01*
X86505488Y-125100985D02*
X86564133Y-125213254D01*
X210373039Y-93544094D02*
X210295932Y-93413107D01*
X117952605Y-52985889D02*
X118005488Y-53100985D01*
X209924378Y-20933099D02*
X209816900Y-20825621D01*
X145501957Y-92095768D02*
X145353895Y-92061410D01*
X117864651Y-88748407D02*
X117905619Y-88868263D01*
X177836892Y-92454067D02*
X177705905Y-92376960D01*
X114963804Y-20537709D02*
X114836892Y-20454067D01*
X182501592Y-90385348D02*
X182623368Y-90420192D01*
X197810548Y-89196496D02*
X197825586Y-89210082D01*
X146586317Y-20627672D02*
X146463804Y-20537709D01*
X134853503Y-89239451D02*
X134878305Y-89271492D01*
X193846472Y-89113630D02*
X193887426Y-89104924D01*
X182163107Y-92454067D02*
X182036195Y-92537709D01*
X181204067Y-57413107D02*
X181126960Y-57544094D01*
X179250000Y-95000000D02*
X179246149Y-94848052D01*
X179094380Y-124868263D02*
X179135348Y-124748407D01*
X118795882Y-92723725D02*
X118683099Y-92825621D01*
X178316900Y-20825621D02*
X178204117Y-20723725D01*
X145501957Y-56095768D02*
X145353895Y-56061410D01*
X210746791Y-124126622D02*
X210750000Y-124000000D01*
X134590467Y-89102052D02*
X134630519Y-89108188D01*
X193593597Y-125318404D02*
X193614532Y-125282144D01*
X130950000Y-125100000D02*
X134550000Y-125100000D01*
X130887426Y-125104924D02*
X130908188Y-125102191D01*
X208791915Y-20186743D02*
X208648089Y-20137582D01*
X197950000Y-125500000D02*
X197950000Y-126500000D01*
X99287305Y-89134582D02*
X99306653Y-89126568D01*
X86262826Y-88252920D02*
X86278829Y-88378569D01*
X197853503Y-89239451D02*
X197878305Y-89271492D01*
X183123377Y-126496791D02*
X183250000Y-126500000D01*
X99387426Y-53104924D02*
X99408188Y-53102191D01*
X117801175Y-88503246D02*
X117829807Y-88626631D01*
X117001000Y-38250000D02*
X117750000Y-38250000D01*
X116047394Y-52985889D02*
X116094380Y-52868263D01*
X87027582Y-53811981D02*
X87121568Y-53896895D01*
X117750000Y-74250000D02*
X117750000Y-88000000D01*
X130550000Y-53500000D02*
X130552191Y-53458188D01*
X149505488Y-53100985D02*
X149564133Y-53213254D01*
X130714886Y-53176393D02*
X130750000Y-53153590D01*
X131750000Y-53100000D02*
X131750000Y-55249500D01*
X163250000Y-55251500D02*
X163250000Y-56000000D01*
X180001000Y-110250000D02*
X180750000Y-110250000D01*
X102250000Y-91251000D02*
X102250000Y-91249000D01*
X166417583Y-125342257D02*
X166431655Y-125380254D01*
X147746791Y-88126622D02*
X147750000Y-88000000D01*
X208501957Y-20095768D02*
X208353895Y-20061410D01*
X178871610Y-53322410D02*
X178935866Y-53213254D01*
X209586317Y-20627672D02*
X209463804Y-20537709D01*
X146878431Y-53896895D02*
X146972417Y-53811981D01*
X150295882Y-20723725D02*
X150183099Y-20825621D01*
X147670192Y-124626631D02*
X147698824Y-124503246D01*
X181353104Y-53628431D02*
X181438018Y-53722417D01*
X149405619Y-52868263D02*
X149452605Y-52985889D01*
X145933067Y-56243126D02*
X145791915Y-56186743D01*
X180952605Y-124985889D02*
X181005488Y-125100985D01*
X146816900Y-92825621D02*
X146704117Y-92723725D01*
X134810548Y-53196496D02*
X134839917Y-53224413D01*
X177618263Y-126344380D02*
X177735889Y-126297394D01*
X87121568Y-53896895D02*
X87219735Y-53976939D01*
X99050000Y-54500000D02*
X99050000Y-53500000D01*
X115204117Y-20723725D02*
X115086317Y-20627672D01*
X177850985Y-54244511D02*
X177963254Y-54185866D01*
X87183099Y-92825621D02*
X87075621Y-92933099D01*
X86787709Y-21286195D02*
X86704067Y-21413107D01*
X130826393Y-53119577D02*
X130846472Y-53113630D01*
X209572410Y-90121610D02*
X209678170Y-90051908D01*
X130614532Y-125282144D02*
X130639142Y-125248272D01*
X118064133Y-125213254D02*
X118128389Y-125322410D01*
X116094380Y-88868263D02*
X116135348Y-88748407D01*
X116170192Y-52626631D02*
X116198824Y-52503246D01*
X166409121Y-125323842D02*
X166417583Y-125342257D01*
X194750000Y-56000000D02*
X183750000Y-56000000D01*
X210715404Y-94545716D02*
X210688589Y-94396104D01*
X150413682Y-56627672D02*
X150295882Y-56723725D01*
X145353895Y-20061410D02*
X145204283Y-20034595D01*
X181438018Y-89722417D02*
X181527582Y-89811981D01*
X209071182Y-56306586D02*
X208933067Y-56243126D01*
X88646104Y-92061410D02*
X88498042Y-92095768D01*
X210295932Y-93413107D02*
X210212290Y-93286195D01*
X130950000Y-89100000D02*
X131750000Y-89100000D01*
X146816900Y-56825621D02*
X146704117Y-56723725D01*
X118575621Y-20933099D02*
X118473725Y-21045882D01*
X146118263Y-126344380D02*
X146235889Y-126297394D01*
X177571182Y-56306586D02*
X177433067Y-56243126D01*
X113853895Y-20061410D02*
X113704283Y-20034595D01*
X149626960Y-21544094D02*
X149556586Y-21678817D01*
X208933067Y-56243126D02*
X208791915Y-56186743D01*
X197941811Y-53419480D02*
X197947947Y-53459532D01*
X118438018Y-53722417D02*
X118527582Y-53811981D01*
X151066932Y-92243126D02*
X150928817Y-92306586D01*
X86787709Y-57286195D02*
X86704067Y-57413107D01*
X145376622Y-54496791D02*
X145502920Y-54487173D01*
X116999000Y-108250000D02*
X116250000Y-108250000D01*
X149265392Y-58696495D02*
X149253850Y-58848052D01*
X209463254Y-54185866D02*
X209572410Y-54121610D01*
X162198272Y-89189142D02*
X162214886Y-89176393D01*
X208753246Y-54448824D02*
X208876631Y-54420192D01*
X117753850Y-94848052D02*
X117750000Y-95000000D01*
X193584582Y-89337305D02*
X193593597Y-89318404D01*
X166207742Y-89132416D02*
X166244120Y-89150261D01*
X151750000Y-54500000D02*
X162050000Y-54500000D01*
X117845768Y-94248042D02*
X117811410Y-94396104D01*
X179135348Y-52748407D02*
X179170192Y-52626631D01*
X197931655Y-89380254D02*
X197941811Y-89419480D01*
X99167157Y-89217157D02*
X99198272Y-89189142D01*
X130550000Y-125500000D02*
X130552191Y-125458188D01*
X148499000Y-72250000D02*
X147750000Y-72250000D01*
X162326393Y-89119577D02*
X162346472Y-89113630D01*
X113853895Y-56061410D02*
X113704283Y-56034595D01*
X150536195Y-20537709D02*
X150413682Y-20627672D01*
X148499000Y-108250000D02*
X147750000Y-108250000D01*
X119708084Y-20186743D02*
X119566932Y-20243126D01*
X178726939Y-125530264D02*
X178801908Y-125428170D01*
X147635348Y-124748407D02*
X147670192Y-124626631D01*
X176750000Y-54500000D02*
X176876622Y-54496791D01*
X210226939Y-53530264D02*
X210301908Y-53428170D01*
X86704067Y-93413107D02*
X86626960Y-93544094D01*
X103244120Y-89150261D02*
X103278507Y-89171694D01*
X88497079Y-54487173D02*
X88623377Y-54496791D01*
X130714886Y-89176393D02*
X130750000Y-89153590D01*
X151623377Y-126496791D02*
X151750000Y-126500000D01*
X113876622Y-126496791D02*
X114002920Y-126487173D01*
X181273060Y-89530264D02*
X181353104Y-89628431D01*
X130908188Y-53102191D02*
X130950000Y-53100000D01*
X150663107Y-56454067D02*
X150536195Y-56537709D01*
X99114532Y-125282144D02*
X99139142Y-125248272D01*
X115935866Y-125213254D02*
X115994511Y-125100985D01*
X181473725Y-57045882D02*
X181377672Y-57163682D01*
X117762826Y-88252920D02*
X117778829Y-88378569D01*
X178712290Y-57286195D02*
X178622327Y-57163682D01*
X114618263Y-126344380D02*
X114735889Y-126297394D01*
X99139142Y-125248272D02*
X99152742Y-125232348D01*
X88497079Y-126487173D02*
X88623377Y-126496791D01*
X116246791Y-88126622D02*
X116250000Y-88000000D01*
X134650261Y-125112769D02*
X134688922Y-125124899D01*
X162054924Y-53437426D02*
X162063630Y-53396472D01*
X179246149Y-22848052D02*
X179234607Y-22696495D01*
X149253850Y-94848052D02*
X149250000Y-95000000D01*
X114963254Y-90185866D02*
X115072410Y-90121610D01*
X210443413Y-21678817D02*
X210373039Y-21544094D01*
X150649014Y-90244511D02*
X150764110Y-90297394D01*
X180864651Y-52748407D02*
X180905619Y-52868263D01*
X103450000Y-54500000D02*
X113750000Y-54500000D01*
X87536745Y-126185866D02*
X87649014Y-126244511D01*
X177735889Y-90297394D02*
X177850985Y-90244511D01*
X117829807Y-52626631D02*
X117864651Y-52748407D01*
X193806653Y-89126568D02*
X193846472Y-89113630D01*
X118527582Y-53811981D02*
X118621568Y-53896895D01*
X166409121Y-53323842D02*
X166417583Y-53342257D01*
X118927589Y-90121610D02*
X119036745Y-90185866D01*
X166389457Y-53288414D02*
X166409121Y-53323842D01*
X119163107Y-56454067D02*
X119036195Y-56537709D01*
X146205905Y-20376960D02*
X146071182Y-20306586D01*
X87075621Y-92933099D02*
X86973725Y-93045882D01*
X146924378Y-20933099D02*
X146816900Y-20825621D01*
X149628389Y-125322410D02*
X149698091Y-125428170D01*
X145791915Y-20186743D02*
X145648089Y-20137582D01*
X177376631Y-90420192D02*
X177498407Y-90385348D01*
X113704283Y-20034595D02*
X113553504Y-20015392D01*
X182851910Y-20137582D02*
X182708084Y-20186743D01*
X181795882Y-20723725D02*
X181683099Y-20825621D01*
X178316900Y-92825621D02*
X178204117Y-92723725D01*
X147226939Y-89530264D02*
X147301908Y-89428170D01*
X166450000Y-126500000D02*
X176750000Y-126500000D01*
X182294094Y-56376960D02*
X182163107Y-56454067D01*
X209878431Y-89896895D02*
X209972417Y-89811981D01*
X149773060Y-89530264D02*
X149853104Y-89628431D01*
X134889457Y-89288414D02*
X134909121Y-89323842D01*
X181683099Y-92825621D02*
X181575621Y-92933099D01*
X197950000Y-89500000D02*
X197950000Y-90500000D01*
X119428817Y-20306586D02*
X119294094Y-20376960D01*
X116246149Y-94848052D02*
X116234607Y-94696495D01*
X130550000Y-89500000D02*
X130552191Y-89458188D01*
X181438018Y-125722417D02*
X181527582Y-125811981D01*
X88208084Y-56186743D02*
X88066932Y-56243126D01*
X119036745Y-54185866D02*
X119149014Y-54244511D01*
X149278829Y-52378569D02*
X149301175Y-52503246D01*
X209071182Y-20306586D02*
X208933067Y-20243126D01*
X193768404Y-125143597D02*
X193806653Y-125126568D01*
X150536195Y-92537709D02*
X150413682Y-92627672D01*
X147734607Y-94696495D02*
X147715404Y-94545716D01*
X166169745Y-89118344D02*
X166188922Y-89124899D01*
X150413682Y-20627672D02*
X150295882Y-20723725D01*
X197950000Y-126500000D02*
X208250000Y-126500000D01*
X147212290Y-21286195D02*
X147122327Y-21163682D01*
X208376622Y-90496791D02*
X208502920Y-90487173D01*
X103450000Y-126500000D02*
X113750000Y-126500000D01*
X151066932Y-56243126D02*
X150928817Y-56306586D01*
X115424378Y-20933099D02*
X115316900Y-20825621D01*
X119036195Y-92537709D02*
X118913682Y-92627672D01*
X99387426Y-89104924D02*
X99408188Y-89102191D01*
X134744120Y-125150261D02*
X134778507Y-125171694D01*
X178378431Y-53896895D02*
X178472417Y-53811981D01*
X99050000Y-89500000D02*
X99052191Y-89458188D01*
X86773060Y-53530264D02*
X86853104Y-53628431D01*
X193550548Y-125479065D02*
X193554924Y-125437426D01*
X176750000Y-90500000D02*
X176876622Y-90496791D01*
X117778829Y-52378569D02*
X117801175Y-52503246D01*
X193667157Y-89217157D02*
X193682348Y-89202742D01*
X162114532Y-53282144D02*
X162139142Y-53248272D01*
X103169745Y-125118344D02*
X103188922Y-125124899D01*
X179234607Y-58696495D02*
X179215404Y-58545716D01*
X197950000Y-53500000D02*
X197950000Y-54500000D01*
X86698091Y-125428170D02*
X86773060Y-125530264D01*
X151750000Y-90500000D02*
X162050000Y-90500000D01*
X86564133Y-125213254D02*
X86628389Y-125322410D01*
X162346472Y-53113630D02*
X162387426Y-53104924D01*
X88750000Y-90500000D02*
X99050000Y-90500000D01*
X180762826Y-124252920D02*
X180778829Y-124378569D01*
X149973725Y-57045882D02*
X149877672Y-57163682D01*
X166278507Y-53171694D02*
X166310548Y-53196496D01*
X209678170Y-126051908D02*
X209780264Y-125976939D01*
X208933067Y-92243126D02*
X208791915Y-92186743D01*
X146972417Y-125811981D02*
X147061981Y-125722417D01*
X86773060Y-89530264D02*
X86853104Y-89628431D01*
X151371430Y-126471170D02*
X151497079Y-126487173D01*
X119871430Y-54471170D02*
X119997079Y-54487173D01*
X166050000Y-53100000D02*
X166090467Y-53102052D01*
X150794094Y-20376960D02*
X150663107Y-20454067D01*
X178622327Y-21163682D02*
X178526274Y-21045882D01*
X147698824Y-52503246D02*
X147721170Y-52378569D01*
X147688589Y-22396104D02*
X147654231Y-22248042D01*
X210746791Y-88126622D02*
X210750000Y-88000000D01*
X114001957Y-20095768D02*
X113853895Y-20061410D01*
X99198272Y-125189142D02*
X99232144Y-125164532D01*
X177498407Y-126385348D02*
X177618263Y-126344380D01*
X165250000Y-91249000D02*
X165250000Y-89100000D01*
X114498407Y-90385348D02*
X114618263Y-90344380D01*
X147212290Y-57286195D02*
X147122327Y-57163682D01*
X119871430Y-126471170D02*
X119997079Y-126487173D01*
X118719735Y-125976939D02*
X118821829Y-126051908D01*
X99287305Y-53134582D02*
X99326393Y-53119577D01*
X118438018Y-89722417D02*
X118527582Y-89811981D01*
X193846472Y-125113630D02*
X193887426Y-125104924D01*
X210698824Y-124503246D02*
X210721170Y-124378569D01*
X115712290Y-93286195D02*
X115622327Y-93163682D01*
X114498407Y-54385348D02*
X114618263Y-54344380D01*
X177735889Y-126297394D02*
X177850985Y-126244511D01*
X145648089Y-56137582D02*
X145501957Y-56095768D01*
X117936743Y-21958084D02*
X117887582Y-22101910D01*
X149493126Y-21816932D02*
X149436743Y-21958084D01*
X208053504Y-92015392D02*
X207901947Y-92003850D01*
X118273060Y-53530264D02*
X118353104Y-53628431D01*
X149387582Y-22101910D02*
X149345768Y-22248042D01*
X183446495Y-92015392D02*
X183295716Y-92034595D01*
X130639142Y-125248272D02*
X130652742Y-125232348D01*
X146235889Y-90297394D02*
X146350985Y-90244511D01*
X181056586Y-57678817D02*
X180993126Y-57816932D01*
X197707742Y-125132416D02*
X197744120Y-125150261D01*
X99326393Y-53119577D02*
X99346472Y-53113630D01*
X178646895Y-89628431D02*
X178726939Y-89530264D01*
X163250000Y-92000000D02*
X152250000Y-92000000D01*
X145353895Y-92061410D02*
X145204283Y-92034595D01*
X197825586Y-125210082D02*
X197853503Y-125239451D01*
X115935866Y-89213254D02*
X115994511Y-89100985D01*
X114148089Y-92137582D02*
X114001957Y-92095768D01*
X116188589Y-58396104D02*
X116154231Y-58248042D01*
X179198824Y-88503246D02*
X179221170Y-88378569D01*
X209235889Y-54297394D02*
X209350985Y-54244511D01*
X147746149Y-58848052D02*
X147734607Y-58696495D01*
X146463804Y-92537709D02*
X146336892Y-92454067D01*
X166353503Y-53239451D02*
X166378305Y-53271492D01*
X178795932Y-93413107D02*
X178712290Y-93286195D01*
X162152742Y-53232348D02*
X162167157Y-53217157D01*
X99069577Y-89376393D02*
X99084582Y-89337305D01*
X120146104Y-92061410D02*
X119998042Y-92095768D01*
X181198091Y-53428170D02*
X181273060Y-53530264D01*
X179250000Y-108250000D02*
X179250000Y-95000000D01*
X86877672Y-57163682D02*
X86787709Y-57286195D01*
X180784595Y-58545716D02*
X180765392Y-58696495D01*
X209071182Y-92306586D02*
X208933067Y-92243126D01*
X163250000Y-91251000D02*
X163250000Y-92000000D01*
X87295882Y-92723725D02*
X87183099Y-92825621D01*
X130887426Y-53104924D02*
X130908188Y-53102191D01*
X115873039Y-57544094D02*
X115795932Y-57413107D01*
X87027582Y-125811981D02*
X87121568Y-125896895D01*
X86452605Y-124985889D02*
X86505488Y-125100985D01*
X115994511Y-125100985D02*
X116047394Y-124985889D01*
X99408188Y-125102191D02*
X99450000Y-125100000D01*
X89250000Y-92000000D02*
X89098052Y-92003850D01*
X150881736Y-90344380D02*
X151001592Y-90385348D01*
X86973725Y-93045882D02*
X86877672Y-93163682D01*
X86938018Y-89722417D02*
X87027582Y-89811981D01*
X116246149Y-58848052D02*
X116234607Y-58696495D01*
X147688589Y-94396104D02*
X147654231Y-94248042D01*
X87121568Y-89896895D02*
X87219735Y-89976939D01*
X166450000Y-54500000D02*
X176750000Y-54500000D01*
X131750000Y-55251500D02*
X131750000Y-56000000D01*
X210371610Y-89322410D02*
X210435866Y-89213254D01*
X209463804Y-56537709D02*
X209336892Y-56454067D01*
X166278507Y-89171694D02*
X166310548Y-89196496D01*
X179063256Y-21958084D02*
X179006873Y-21816932D01*
X134550000Y-53100000D02*
X134590467Y-53102052D01*
X150649014Y-54244511D02*
X150764110Y-54297394D01*
X182163107Y-20454067D02*
X182036195Y-20537709D01*
X149877672Y-93163682D02*
X149787709Y-93286195D01*
X134941811Y-53419480D02*
X134947947Y-53459532D01*
X208353895Y-20061410D02*
X208204283Y-20034595D01*
X130908188Y-125102191D02*
X130950000Y-125100000D01*
X147061981Y-53722417D02*
X147146895Y-53628431D01*
X151123368Y-90420192D02*
X151246753Y-90448824D01*
X117952605Y-124985889D02*
X118005488Y-125100985D01*
X147435866Y-125213254D02*
X147494511Y-125100985D01*
X145791915Y-92186743D02*
X145648089Y-92137582D01*
X117750000Y-110250000D02*
X117750000Y-124000000D01*
X86265392Y-22696495D02*
X86253850Y-22848052D01*
X115526274Y-93045882D02*
X115424378Y-92933099D01*
X162450000Y-53100000D02*
X163250000Y-53100000D01*
X115622327Y-21163682D02*
X115526274Y-21045882D01*
X197688922Y-89124899D02*
X197707742Y-89132416D01*
X145876631Y-90420192D02*
X145998407Y-90385348D01*
X86787709Y-93286195D02*
X86704067Y-93413107D01*
X118204067Y-93413107D02*
X118126960Y-93544094D01*
X149556586Y-21678817D02*
X149493126Y-21816932D01*
X179250000Y-36250000D02*
X179250000Y-23000000D01*
X117753208Y-88126622D02*
X117762826Y-88252920D01*
X193550000Y-53500000D02*
X193552191Y-53458188D01*
X88623377Y-54496791D02*
X88750000Y-54500000D01*
X134688922Y-53124899D02*
X134726157Y-53140878D01*
X130787305Y-89134582D02*
X130806653Y-89126568D01*
X113853895Y-92061410D02*
X113704283Y-92034595D01*
X86364651Y-124748407D02*
X86405619Y-124868263D01*
X182501592Y-126385348D02*
X182623368Y-126420192D01*
X197941811Y-125419480D02*
X197947947Y-125459532D01*
X149387582Y-94101910D02*
X149345768Y-94248042D01*
X163250000Y-55249500D02*
X163250000Y-55251500D01*
X176553504Y-20015392D02*
X176401947Y-20003850D01*
X87663107Y-20454067D02*
X87536195Y-20537709D01*
X115561981Y-53722417D02*
X115646895Y-53628431D01*
X99063630Y-53396472D02*
X99076568Y-53356653D01*
X209816900Y-92825621D02*
X209704117Y-92723725D01*
X134950000Y-125500000D02*
X134950000Y-126500000D01*
X210750000Y-59000000D02*
X210746149Y-58848052D01*
X99052191Y-125458188D02*
X99054924Y-125437426D01*
X210301908Y-53428170D02*
X210371610Y-53322410D01*
X178994511Y-53100985D02*
X179047394Y-52985889D01*
X88246753Y-54448824D02*
X88371430Y-54471170D01*
X147061981Y-89722417D02*
X147146895Y-89628431D01*
X86329807Y-124626631D02*
X86364651Y-124748407D01*
X88371430Y-126471170D02*
X88497079Y-126487173D01*
X99346472Y-53113630D02*
X99387426Y-53104924D01*
X99058741Y-53416835D02*
X99063630Y-53396472D01*
X197931655Y-125380254D02*
X197941811Y-125419480D01*
X146336892Y-56454067D02*
X146205905Y-56376960D01*
X181795882Y-92723725D02*
X181683099Y-92825621D01*
X166447947Y-89459532D02*
X166450000Y-89500000D01*
X193682348Y-53202742D02*
X193698272Y-53189142D01*
X115795932Y-57413107D02*
X115712290Y-57286195D01*
X103169745Y-89118344D02*
X103188922Y-89124899D01*
X181575621Y-92933099D02*
X181473725Y-93045882D01*
X149250000Y-59000000D02*
X149250000Y-72250000D01*
X162126393Y-89264886D02*
X162152742Y-89232348D01*
X150928817Y-56306586D02*
X150794094Y-56376960D01*
X149436743Y-21958084D02*
X149387582Y-22101910D01*
X147295932Y-21413107D02*
X147212290Y-21286195D01*
X99076568Y-125356653D02*
X99084582Y-125337305D01*
X134853503Y-53239451D02*
X134878305Y-53271492D01*
X179999000Y-38250000D02*
X180001000Y-38250000D01*
X210750000Y-95000000D02*
X210746149Y-94848052D01*
X166050000Y-125100000D02*
X166090467Y-125102052D01*
X149556586Y-93678817D02*
X149493126Y-93816932D01*
X166244120Y-89150261D02*
X166278507Y-89171694D01*
X134947947Y-89459532D02*
X134950000Y-89500000D01*
X86564133Y-53213254D02*
X86628389Y-53322410D01*
X176750000Y-126500000D02*
X176876622Y-126496791D01*
X118795882Y-20723725D02*
X118683099Y-20825621D01*
X162167157Y-125217157D02*
X162198272Y-125189142D01*
X119264110Y-90297394D02*
X119381736Y-90344380D01*
X152250000Y-92000000D02*
X152098052Y-92003850D01*
X166378305Y-125271492D02*
X166399738Y-125305879D01*
X134947947Y-53459532D02*
X134950000Y-53500000D01*
X193887426Y-125104924D02*
X193908188Y-125102191D01*
X114148089Y-20137582D02*
X114001957Y-20095768D01*
X118126960Y-93544094D02*
X118056586Y-93678817D01*
X210563256Y-57958084D02*
X210506873Y-57816932D01*
X197899738Y-89305879D02*
X197909121Y-89323842D01*
X114850985Y-54244511D02*
X114963254Y-54185866D01*
X209816900Y-20825621D02*
X209704117Y-20723725D01*
X86387582Y-58101910D02*
X86345768Y-58248042D01*
X119428817Y-56306586D02*
X119294094Y-56376960D01*
X114963804Y-92537709D02*
X114836892Y-92454067D01*
X180750000Y-52000000D02*
X180753208Y-52126622D01*
X103339917Y-53224413D02*
X103353503Y-53239451D01*
X118683099Y-20825621D02*
X118575621Y-20933099D01*
X209463254Y-126185866D02*
X209572410Y-126121610D01*
X179250000Y-23000000D02*
X179246149Y-22848052D01*
X176876622Y-126496791D02*
X177002920Y-126487173D01*
X177963804Y-92537709D02*
X177836892Y-92454067D01*
X116215404Y-22545716D02*
X116188589Y-22396104D01*
X103417583Y-53342257D02*
X103431655Y-53380254D01*
X147721170Y-52378569D02*
X147737173Y-52252920D01*
X149284595Y-94545716D02*
X149265392Y-94696495D01*
X150764110Y-90297394D02*
X150881736Y-90344380D01*
X180001000Y-108250000D02*
X179999000Y-108250000D01*
X134688922Y-89124899D02*
X134707742Y-89132416D01*
X182036195Y-92537709D02*
X181913682Y-92627672D01*
X207901947Y-20003850D02*
X207750000Y-20000000D01*
X210715404Y-58545716D02*
X210688589Y-58396104D01*
X166150261Y-125112769D02*
X166188922Y-125124899D01*
X116250000Y-74250000D02*
X116999000Y-74250000D01*
X177963804Y-56537709D02*
X177836892Y-56454067D01*
X147373039Y-21544094D02*
X147295932Y-21413107D01*
X114618263Y-90344380D02*
X114735889Y-90297394D01*
X151750000Y-126500000D02*
X162050000Y-126500000D01*
X117811410Y-94396104D02*
X117784595Y-94545716D01*
X193584582Y-125337305D02*
X193593597Y-125318404D01*
X210547394Y-124985889D02*
X210594380Y-124868263D01*
X88066932Y-92243126D02*
X87928817Y-92306586D01*
X147715404Y-94545716D02*
X147688589Y-94396104D01*
X116170192Y-124626631D02*
X116198824Y-124503246D01*
X145791915Y-56186743D02*
X145648089Y-56137582D01*
X180762826Y-88252920D02*
X180778829Y-88378569D01*
X117750000Y-124000000D02*
X117753208Y-124126622D01*
X178204117Y-56723725D02*
X178086317Y-56627672D01*
X147746791Y-124126622D02*
X147750000Y-124000000D01*
X146118263Y-54344380D02*
X146235889Y-54297394D01*
X150075621Y-20933099D02*
X149973725Y-21045882D01*
X147226939Y-53530264D02*
X147301908Y-53428170D01*
X179215404Y-94545716D02*
X179188589Y-94396104D01*
X176401947Y-20003850D02*
X176250000Y-20000000D01*
X118204067Y-21413107D02*
X118126960Y-21544094D01*
X166399738Y-125305879D02*
X166409121Y-125323842D01*
X177571182Y-92306586D02*
X177433067Y-92243126D01*
X130652742Y-89232348D02*
X130667157Y-89217157D01*
X116250000Y-72250000D02*
X116250000Y-59000000D01*
X134669745Y-89118344D02*
X134688922Y-89124899D01*
X150183099Y-20825621D02*
X150075621Y-20933099D01*
X115994511Y-89100985D02*
X116047394Y-88985889D01*
X119623368Y-126420192D02*
X119746753Y-126448824D01*
X210494511Y-125100985D02*
X210547394Y-124985889D01*
X193593597Y-53318404D02*
X193614532Y-53282144D01*
X210146895Y-89628431D02*
X210226939Y-89530264D01*
X166310548Y-89196496D02*
X166339917Y-89224413D01*
X151497079Y-54487173D02*
X151623377Y-54496791D01*
X88498042Y-56095768D02*
X88351910Y-56137582D01*
X166207742Y-125132416D02*
X166244120Y-125150261D01*
X114836892Y-56454067D02*
X114705905Y-56376960D01*
X117750000Y-108250000D02*
X117001000Y-108250000D01*
X179221170Y-124378569D02*
X179237173Y-124252920D01*
X145933067Y-20243126D02*
X145791915Y-20186743D01*
X166244120Y-125150261D02*
X166278507Y-125171694D01*
X117750000Y-52000000D02*
X117753208Y-52126622D01*
X88001592Y-126385348D02*
X88123368Y-126420192D01*
X88795716Y-92034595D02*
X88646104Y-92061410D01*
X88498042Y-92095768D02*
X88351910Y-92137582D01*
X148501000Y-74250000D02*
X149250000Y-74250000D01*
X166447947Y-125459532D02*
X166450000Y-125500000D01*
X179250000Y-38250000D02*
X179999000Y-38250000D01*
X162232144Y-125164532D02*
X162250000Y-125153590D01*
X118913682Y-92627672D02*
X118795882Y-92723725D01*
X116094380Y-124868263D02*
X116135348Y-124748407D01*
X117001000Y-110250000D02*
X117750000Y-110250000D01*
X180936743Y-57958084D02*
X180887582Y-58101910D01*
X119708084Y-92186743D02*
X119566932Y-92243126D01*
X134931655Y-53380254D02*
X134941811Y-53419480D01*
X177433067Y-20243126D02*
X177291915Y-20186743D01*
M02*
