%TF.GenerationSoftware,KiCad,Pcbnew,8.0.2*%
%TF.CreationDate,2024-06-10T13:17:10+01:00*%
%TF.ProjectId,,58585858-5858-4585-9858-585858585858,rev?*%
%TF.SameCoordinates,Original*%
%TF.FileFunction,Soldermask,Top*%
%TF.FilePolarity,Negative*%
%FSLAX46Y46*%
G04 Gerber Fmt 4.6, Leading zero omitted, Abs format (unit mm)*
G04 Created by KiCad (PCBNEW 8.0.2) date 2024-06-10 13:17:10*
%MOMM*%
%LPD*%
G01*
G04 APERTURE LIST*
%ADD10C,0.500000*%
%ADD11C,4.000000*%
%ADD12C,3.050000*%
%ADD13C,1.700000*%
%ADD14C,2.200000*%
%ADD15O,1.200000X2.200000*%
%ADD16O,2.200000X1.200000*%
G04 APERTURE END LIST*
D10*
%TO.C,KiKit_MB_28_3*%
X147750000Y-110250000D03*
%TD*%
%TO.C,KiKit_MB_31_3*%
X179250000Y-110250000D03*
%TD*%
D11*
%TO.C,*%
X120856000Y-50156000D03*
%TD*%
D10*
%TO.C,KiKit_MB_23_2*%
X195750000Y-56000000D03*
%TD*%
%TO.C,KiKit_MB_5_3*%
X131750000Y-53100000D03*
%TD*%
%TO.C,KiKit_MB_10_2*%
X195750000Y-53100000D03*
%TD*%
%TO.C,KiKit_MB_33_3*%
X180750000Y-108250000D03*
%TD*%
D12*
%TO.C,REF\u002A\u002A*%
X89350000Y-59000000D03*
D11*
X89350000Y-74240000D03*
D13*
X96170000Y-66000000D03*
D11*
X101250000Y-66000000D03*
D13*
X106330000Y-66000000D03*
D12*
X113150000Y-59000000D03*
D11*
X113150000Y-74240000D03*
D14*
X103790000Y-60920000D03*
X105070000Y-63460000D03*
X97440000Y-63460000D03*
X98720000Y-60920000D03*
%TD*%
D10*
%TO.C,KiKit_MB_32_2*%
X164250000Y-92000000D03*
%TD*%
D11*
%TO.C,*%
X144656000Y-122156000D03*
%TD*%
%TO.C,*%
X176156000Y-50156000D03*
%TD*%
D10*
%TO.C,KiKit_MB_7_3*%
X179250000Y-38250000D03*
%TD*%
%TO.C,KiKit_MB_29_3*%
X133750000Y-92000000D03*
%TD*%
%TO.C,KiKit_MB_2_3*%
X100250000Y-53100000D03*
%TD*%
%TO.C,KiKit_MB_32_1*%
X163250000Y-92000000D03*
%TD*%
%TO.C,KiKit_MB_18_3*%
X149250000Y-72250000D03*
%TD*%
%TO.C,KiKit_MB_27_1*%
X117750000Y-110250000D03*
%TD*%
%TO.C,KiKit_MB_3_2*%
X117750000Y-37250000D03*
%TD*%
%TO.C,KiKit_MB_31_2*%
X179250000Y-109250000D03*
%TD*%
%TO.C,KiKit_MB_11_2*%
X116250000Y-73250000D03*
%TD*%
D11*
%TO.C,*%
X113156000Y-86156000D03*
%TD*%
D10*
%TO.C,KiKit_MB_17_2*%
X132750000Y-89100000D03*
%TD*%
%TO.C,KiKit_MB_16_3*%
X133750000Y-56000000D03*
%TD*%
%TO.C,KiKit_MB_23_1*%
X194750000Y-56000000D03*
%TD*%
%TO.C,KiKit_MB_15_1*%
X147750000Y-72250000D03*
%TD*%
%TO.C,KiKit_MB_16_1*%
X131750000Y-56000000D03*
%TD*%
%TO.C,KiKit_MB_30_1*%
X149250000Y-110250000D03*
%TD*%
%TO.C,KiKit_MB_27_2*%
X117750000Y-109250000D03*
%TD*%
%TO.C,KiKit_MB_23_3*%
X196750000Y-56000000D03*
%TD*%
%TO.C,KiKit_MB_7_2*%
X179250000Y-37250000D03*
%TD*%
D15*
%TO.C,REF\u002A\u002A*%
X190750000Y-45000000D03*
X193250000Y-45000000D03*
D16*
X195750000Y-50000000D03*
D15*
X200750000Y-45000000D03*
X198250000Y-45000000D03*
%TD*%
D10*
%TO.C,KiKit_MB_9_2*%
X180750000Y-37250000D03*
%TD*%
%TO.C,KiKit_MB_26_3*%
X102250000Y-92000000D03*
%TD*%
D12*
%TO.C,REF\u002A\u002A*%
X89350000Y-23000000D03*
D11*
X89350000Y-38240000D03*
D13*
X96170000Y-30000000D03*
D11*
X101250000Y-30000000D03*
D13*
X106330000Y-30000000D03*
D12*
X113150000Y-23000000D03*
D11*
X113150000Y-38240000D03*
D14*
X103790000Y-24920000D03*
X105070000Y-27460000D03*
X97440000Y-27460000D03*
X98720000Y-24920000D03*
%TD*%
D10*
%TO.C,KiKit_MB_22_2*%
X180750000Y-73250000D03*
%TD*%
%TO.C,KiKit_MB_6_1*%
X149250000Y-38250000D03*
%TD*%
D15*
%TO.C,REF\u002A\u002A*%
X190750000Y-81000000D03*
X193250000Y-81000000D03*
D16*
X195750000Y-86000000D03*
D15*
X200750000Y-81000000D03*
X198250000Y-81000000D03*
%TD*%
%TO.C,REF\u002A\u002A*%
X127750000Y-45000000D03*
X130250000Y-45000000D03*
D16*
X132750000Y-50000000D03*
D15*
X137750000Y-45000000D03*
X135250000Y-45000000D03*
%TD*%
D11*
%TO.C,*%
X152356000Y-50156000D03*
%TD*%
D10*
%TO.C,KiKit_MB_1_2*%
X116250000Y-37250000D03*
%TD*%
%TO.C,KiKit_MB_7_1*%
X179250000Y-36250000D03*
%TD*%
D11*
%TO.C,*%
X207656000Y-122156000D03*
%TD*%
D10*
%TO.C,KiKit_MB_24_2*%
X195750000Y-89100000D03*
%TD*%
D11*
%TO.C,*%
X120856000Y-86156000D03*
%TD*%
D10*
%TO.C,KiKit_MB_15_3*%
X147750000Y-74250000D03*
%TD*%
D15*
%TO.C,REF\u002A\u002A*%
X190750000Y-117000000D03*
X193250000Y-117000000D03*
D16*
X195750000Y-122000000D03*
D15*
X200750000Y-117000000D03*
X198250000Y-117000000D03*
%TD*%
D10*
%TO.C,KiKit_MB_15_2*%
X147750000Y-73250000D03*
%TD*%
%TO.C,KiKit_MB_20_3*%
X165250000Y-56000000D03*
%TD*%
%TO.C,KiKit_MB_8_2*%
X164250000Y-53100000D03*
%TD*%
D11*
%TO.C,*%
X89356000Y-122156000D03*
%TD*%
D10*
%TO.C,KiKit_MB_24_3*%
X194750000Y-89100000D03*
%TD*%
D11*
%TO.C,*%
X207656000Y-50156000D03*
%TD*%
D10*
%TO.C,KiKit_MB_5_1*%
X133750000Y-53100000D03*
%TD*%
D11*
%TO.C,*%
X152356000Y-122156000D03*
%TD*%
D10*
%TO.C,KiKit_MB_12_1*%
X100250000Y-56000000D03*
%TD*%
D12*
%TO.C,REF\u002A\u002A*%
X89350000Y-95000000D03*
D11*
X89350000Y-110240000D03*
D13*
X96170000Y-102000000D03*
D11*
X101250000Y-102000000D03*
D13*
X106330000Y-102000000D03*
D12*
X113150000Y-95000000D03*
D11*
X113150000Y-110240000D03*
D14*
X103790000Y-96920000D03*
X105070000Y-99460000D03*
X97440000Y-99460000D03*
X98720000Y-96920000D03*
%TD*%
D12*
%TO.C,REF\u002A\u002A*%
X183850000Y-59000000D03*
D11*
X183850000Y-74240000D03*
D13*
X190670000Y-66000000D03*
D11*
X195750000Y-66000000D03*
D13*
X200830000Y-66000000D03*
D12*
X207650000Y-59000000D03*
D11*
X207650000Y-74240000D03*
D14*
X198290000Y-60920000D03*
X199570000Y-63460000D03*
X191940000Y-63460000D03*
X193220000Y-60920000D03*
%TD*%
D15*
%TO.C,REF\u002A\u002A*%
X127750000Y-81000000D03*
X130250000Y-81000000D03*
D16*
X132750000Y-86000000D03*
D15*
X137750000Y-81000000D03*
X135250000Y-81000000D03*
%TD*%
D11*
%TO.C,*%
X152356000Y-86156000D03*
%TD*%
D10*
%TO.C,KiKit_MB_27_3*%
X117750000Y-108250000D03*
%TD*%
D15*
%TO.C,REF\u002A\u002A*%
X96250000Y-45000000D03*
X98750000Y-45000000D03*
D16*
X101250000Y-50000000D03*
D15*
X106250000Y-45000000D03*
X103750000Y-45000000D03*
%TD*%
D10*
%TO.C,KiKit_MB_33_1*%
X180750000Y-110250000D03*
%TD*%
%TO.C,KiKit_MB_9_1*%
X180750000Y-38250000D03*
%TD*%
D12*
%TO.C,REF\u002A\u002A*%
X152350000Y-23000000D03*
D11*
X152350000Y-38240000D03*
D13*
X159170000Y-30000000D03*
D11*
X164250000Y-30000000D03*
D13*
X169330000Y-30000000D03*
D12*
X176150000Y-23000000D03*
D11*
X176150000Y-38240000D03*
D14*
X166790000Y-24920000D03*
X168070000Y-27460000D03*
X160440000Y-27460000D03*
X161720000Y-24920000D03*
%TD*%
D11*
%TO.C,*%
X120856000Y-122156000D03*
%TD*%
D10*
%TO.C,KiKit_MB_1_1*%
X116250000Y-36250000D03*
%TD*%
D11*
%TO.C,*%
X144656000Y-50156000D03*
%TD*%
D10*
%TO.C,KiKit_MB_25_2*%
X116250000Y-109250000D03*
%TD*%
%TO.C,KiKit_MB_32_3*%
X165250000Y-92000000D03*
%TD*%
%TO.C,KiKit_MB_12_2*%
X101250000Y-56000000D03*
%TD*%
%TO.C,KiKit_MB_21_1*%
X165250000Y-89100000D03*
%TD*%
D11*
%TO.C,*%
X113156000Y-122156000D03*
%TD*%
D10*
%TO.C,KiKit_MB_6_3*%
X149250000Y-36250000D03*
%TD*%
%TO.C,KiKit_MB_19_2*%
X179250000Y-73250000D03*
%TD*%
%TO.C,KiKit_MB_34_3*%
X196750000Y-92000000D03*
%TD*%
%TO.C,KiKit_MB_4_3*%
X147750000Y-38250000D03*
%TD*%
%TO.C,KiKit_MB_3_3*%
X117750000Y-36250000D03*
%TD*%
%TO.C,KiKit_MB_13_3*%
X100250000Y-89100000D03*
%TD*%
%TO.C,KiKit_MB_28_1*%
X147750000Y-108250000D03*
%TD*%
%TO.C,KiKit_MB_3_1*%
X117750000Y-38250000D03*
%TD*%
D12*
%TO.C,REF\u002A\u002A*%
X152350000Y-59000000D03*
D11*
X152350000Y-74240000D03*
D13*
X159170000Y-66000000D03*
D11*
X164250000Y-66000000D03*
D13*
X169330000Y-66000000D03*
D12*
X176150000Y-59000000D03*
D11*
X176150000Y-74240000D03*
D14*
X166790000Y-60920000D03*
X168070000Y-63460000D03*
X160440000Y-63460000D03*
X161720000Y-60920000D03*
%TD*%
D10*
%TO.C,KiKit_MB_28_2*%
X147750000Y-109250000D03*
%TD*%
D15*
%TO.C,REF\u002A\u002A*%
X96250000Y-117000000D03*
X98750000Y-117000000D03*
D16*
X101250000Y-122000000D03*
D15*
X106250000Y-117000000D03*
X103750000Y-117000000D03*
%TD*%
D10*
%TO.C,KiKit_MB_20_2*%
X164250000Y-56000000D03*
%TD*%
D11*
%TO.C,*%
X176156000Y-86156000D03*
%TD*%
D10*
%TO.C,KiKit_MB_30_3*%
X149250000Y-108250000D03*
%TD*%
%TO.C,KiKit_MB_21_2*%
X164250000Y-89100000D03*
%TD*%
%TO.C,KiKit_MB_26_2*%
X101250000Y-92000000D03*
%TD*%
%TO.C,KiKit_MB_10_3*%
X194750000Y-53100000D03*
%TD*%
%TO.C,KiKit_MB_9_3*%
X180750000Y-36250000D03*
%TD*%
D15*
%TO.C,REF\u002A\u002A*%
X159250000Y-45000000D03*
X161750000Y-45000000D03*
D16*
X164250000Y-50000000D03*
D15*
X169250000Y-45000000D03*
X166750000Y-45000000D03*
%TD*%
D12*
%TO.C,REF\u002A\u002A*%
X120850000Y-59000000D03*
D11*
X120850000Y-74240000D03*
D13*
X127670000Y-66000000D03*
D11*
X132750000Y-66000000D03*
D13*
X137830000Y-66000000D03*
D12*
X144650000Y-59000000D03*
D11*
X144650000Y-74240000D03*
D14*
X135290000Y-60920000D03*
X136570000Y-63460000D03*
X128940000Y-63460000D03*
X130220000Y-60920000D03*
%TD*%
D12*
%TO.C,REF\u002A\u002A*%
X120850000Y-95000000D03*
D11*
X120850000Y-110240000D03*
D13*
X127670000Y-102000000D03*
D11*
X132750000Y-102000000D03*
D13*
X137830000Y-102000000D03*
D12*
X144650000Y-95000000D03*
D11*
X144650000Y-110240000D03*
D14*
X135290000Y-96920000D03*
X136570000Y-99460000D03*
X128940000Y-99460000D03*
X130220000Y-96920000D03*
%TD*%
D10*
%TO.C,KiKit_MB_5_2*%
X132750000Y-53100000D03*
%TD*%
D11*
%TO.C,*%
X144656000Y-86156000D03*
%TD*%
D10*
%TO.C,KiKit_MB_33_2*%
X180750000Y-109250000D03*
%TD*%
D12*
%TO.C,REF\u002A\u002A*%
X152350000Y-95000000D03*
D11*
X152350000Y-110240000D03*
D13*
X159170000Y-102000000D03*
D11*
X164250000Y-102000000D03*
D13*
X169330000Y-102000000D03*
D12*
X176150000Y-95000000D03*
D11*
X176150000Y-110240000D03*
D14*
X166790000Y-96920000D03*
X168070000Y-99460000D03*
X160440000Y-99460000D03*
X161720000Y-96920000D03*
%TD*%
D11*
%TO.C,*%
X183856000Y-122156000D03*
%TD*%
D12*
%TO.C,REF\u002A\u002A*%
X183850000Y-95000000D03*
D11*
X183850000Y-110240000D03*
D13*
X190670000Y-102000000D03*
D11*
X195750000Y-102000000D03*
D13*
X200830000Y-102000000D03*
D12*
X207650000Y-95000000D03*
D11*
X207650000Y-110240000D03*
D14*
X198290000Y-96920000D03*
X199570000Y-99460000D03*
X191940000Y-99460000D03*
X193220000Y-96920000D03*
%TD*%
D10*
%TO.C,KiKit_MB_20_1*%
X163250000Y-56000000D03*
%TD*%
%TO.C,KiKit_MB_11_3*%
X116250000Y-74250000D03*
%TD*%
%TO.C,KiKit_MB_30_2*%
X149250000Y-109250000D03*
%TD*%
%TO.C,KiKit_MB_21_3*%
X163250000Y-89100000D03*
%TD*%
%TO.C,KiKit_MB_18_1*%
X149250000Y-74250000D03*
%TD*%
%TO.C,KiKit_MB_12_3*%
X102250000Y-56000000D03*
%TD*%
%TO.C,KiKit_MB_25_3*%
X116250000Y-110250000D03*
%TD*%
%TO.C,KiKit_MB_34_2*%
X195750000Y-92000000D03*
%TD*%
D15*
%TO.C,REF\u002A\u002A*%
X159250000Y-117000000D03*
X161750000Y-117000000D03*
D16*
X164250000Y-122000000D03*
D15*
X169250000Y-117000000D03*
X166750000Y-117000000D03*
%TD*%
D10*
%TO.C,KiKit_MB_14_2*%
X117750000Y-73250000D03*
%TD*%
%TO.C,KiKit_MB_4_2*%
X147750000Y-37250000D03*
%TD*%
%TO.C,KiKit_MB_2_2*%
X101250000Y-53100000D03*
%TD*%
D15*
%TO.C,REF\u002A\u002A*%
X96250000Y-81000000D03*
X98750000Y-81000000D03*
D16*
X101250000Y-86000000D03*
D15*
X106250000Y-81000000D03*
X103750000Y-81000000D03*
%TD*%
D11*
%TO.C,*%
X207656000Y-86156000D03*
%TD*%
%TO.C,*%
X183856000Y-86156000D03*
%TD*%
D15*
%TO.C,REF\u002A\u002A*%
X127750000Y-117000000D03*
X130250000Y-117000000D03*
D16*
X132750000Y-122000000D03*
D15*
X137750000Y-117000000D03*
X135250000Y-117000000D03*
%TD*%
D10*
%TO.C,KiKit_MB_16_2*%
X132750000Y-56000000D03*
%TD*%
%TO.C,KiKit_MB_34_1*%
X194750000Y-92000000D03*
%TD*%
%TO.C,KiKit_MB_8_3*%
X163250000Y-53100000D03*
%TD*%
%TO.C,KiKit_MB_18_2*%
X149250000Y-73250000D03*
%TD*%
D11*
%TO.C,*%
X176156000Y-122156000D03*
%TD*%
D10*
%TO.C,KiKit_MB_29_2*%
X132750000Y-92000000D03*
%TD*%
%TO.C,KiKit_MB_24_1*%
X196750000Y-89100000D03*
%TD*%
%TO.C,KiKit_MB_2_1*%
X102250000Y-53100000D03*
%TD*%
%TO.C,KiKit_MB_14_3*%
X117750000Y-72250000D03*
%TD*%
%TO.C,KiKit_MB_26_1*%
X100250000Y-92000000D03*
%TD*%
%TO.C,KiKit_MB_13_2*%
X101250000Y-89100000D03*
%TD*%
D12*
%TO.C,REF\u002A\u002A*%
X183850000Y-23000000D03*
D11*
X183850000Y-38240000D03*
D13*
X190670000Y-30000000D03*
D11*
X195750000Y-30000000D03*
D13*
X200830000Y-30000000D03*
D12*
X207650000Y-23000000D03*
D11*
X207650000Y-38240000D03*
D14*
X198290000Y-24920000D03*
X199570000Y-27460000D03*
X191940000Y-27460000D03*
X193220000Y-24920000D03*
%TD*%
D10*
%TO.C,KiKit_MB_6_2*%
X149250000Y-37250000D03*
%TD*%
%TO.C,KiKit_MB_13_1*%
X102250000Y-89100000D03*
%TD*%
%TO.C,KiKit_MB_4_1*%
X147750000Y-36250000D03*
%TD*%
%TO.C,KiKit_MB_19_1*%
X179250000Y-72250000D03*
%TD*%
D11*
%TO.C,*%
X183856000Y-50156000D03*
%TD*%
%TO.C,*%
X113156000Y-50156000D03*
%TD*%
%TO.C,*%
X89356000Y-86156000D03*
%TD*%
D10*
%TO.C,KiKit_MB_22_3*%
X180750000Y-72250000D03*
%TD*%
D12*
%TO.C,REF\u002A\u002A*%
X120850000Y-23000000D03*
D11*
X120850000Y-38240000D03*
D13*
X127670000Y-30000000D03*
D11*
X132750000Y-30000000D03*
D13*
X137830000Y-30000000D03*
D12*
X144650000Y-23000000D03*
D11*
X144650000Y-38240000D03*
D14*
X135290000Y-24920000D03*
X136570000Y-27460000D03*
X128940000Y-27460000D03*
X130220000Y-24920000D03*
%TD*%
D10*
%TO.C,KiKit_MB_1_3*%
X116250000Y-38250000D03*
%TD*%
%TO.C,KiKit_MB_25_1*%
X116250000Y-108250000D03*
%TD*%
%TO.C,KiKit_MB_10_1*%
X196750000Y-53100000D03*
%TD*%
%TO.C,KiKit_MB_29_1*%
X131750000Y-92000000D03*
%TD*%
%TO.C,KiKit_MB_17_3*%
X131750000Y-89100000D03*
%TD*%
%TO.C,KiKit_MB_22_1*%
X180750000Y-74250000D03*
%TD*%
%TO.C,KiKit_MB_17_1*%
X133750000Y-89100000D03*
%TD*%
%TO.C,KiKit_MB_14_1*%
X117750000Y-74250000D03*
%TD*%
D11*
%TO.C,*%
X89356000Y-50156000D03*
%TD*%
D10*
%TO.C,KiKit_MB_19_3*%
X179250000Y-74250000D03*
%TD*%
D15*
%TO.C,REF\u002A\u002A*%
X159250000Y-81000000D03*
X161750000Y-81000000D03*
D16*
X164250000Y-86000000D03*
D15*
X169250000Y-81000000D03*
X166750000Y-81000000D03*
%TD*%
D10*
%TO.C,KiKit_MB_31_1*%
X179250000Y-108250000D03*
%TD*%
%TO.C,KiKit_MB_8_1*%
X165250000Y-53100000D03*
%TD*%
%TO.C,KiKit_MB_11_1*%
X116250000Y-72250000D03*
%TD*%
M02*
