M48
; DRILL file {KiCad 8.0.2} date 2024-06-10T13:17:14+0100
; FORMAT={-:-/ absolute / inch / decimal}
; #@! TF.CreationDate,2024-06-10T13:17:14+01:00
; #@! TF.GenerationSoftware,Kicad,Pcbnew,8.0.2
; #@! TF.FileFunction,NonPlated,1,2,NPTH
FMAT,2
INCH
; #@! TA.AperFunction,NonPlated,NPTH,ComponentDrill
T1C0.0197
; #@! TA.AperFunction,NonPlated,NPTH,ComponentDrill
T2C0.0472
; #@! TA.AperFunction,NonPlated,NPTH,ComponentDrill
T3C0.0669
; #@! TA.AperFunction,NonPlated,NPTH,ComponentDrill
T4C0.1201
; #@! TA.AperFunction,NonPlated,NPTH,ComponentDrill
T5C0.1575
%
G90
G05
T1
X3.9469Y-2.0906
X3.9469Y-2.2047
X3.9469Y-3.5079
X3.9469Y-3.622
X3.9862Y-2.0906
X3.9862Y-2.2047
X3.9862Y-3.5079
X3.9862Y-3.622
X4.0256Y-2.0906
X4.0256Y-2.2047
X4.0256Y-3.5079
X4.0256Y-3.622
X4.5768Y-1.4272
X4.5768Y-1.4665
X4.5768Y-1.5059
X4.5768Y-2.8445
X4.5768Y-2.8839
X4.5768Y-2.9232
X4.5768Y-4.2618
X4.5768Y-4.3012
X4.5768Y-4.3406
X4.6358Y-1.4272
X4.6358Y-1.4665
X4.6358Y-1.5059
X4.6358Y-2.8445
X4.6358Y-2.8839
X4.6358Y-2.9232
X4.6358Y-4.2618
X4.6358Y-4.3012
X4.6358Y-4.3406
X5.187Y-2.0906
X5.187Y-2.2047
X5.187Y-3.5079
X5.187Y-3.622
X5.2264Y-2.0906
X5.2264Y-2.2047
X5.2264Y-3.5079
X5.2264Y-3.622
X5.2657Y-2.0906
X5.2657Y-2.2047
X5.2657Y-3.5079
X5.2657Y-3.622
X5.8169Y-1.4272
X5.8169Y-1.4665
X5.8169Y-1.5059
X5.8169Y-2.8445
X5.8169Y-2.8839
X5.8169Y-2.9232
X5.8169Y-4.2618
X5.8169Y-4.3012
X5.8169Y-4.3406
X5.876Y-1.4272
X5.876Y-1.4665
X5.876Y-1.5059
X5.876Y-2.8445
X5.876Y-2.8839
X5.876Y-2.9232
X5.876Y-4.2618
X5.876Y-4.3012
X5.876Y-4.3406
X6.4272Y-2.0906
X6.4272Y-2.2047
X6.4272Y-3.5079
X6.4272Y-3.622
X6.4665Y-2.0906
X6.4665Y-2.2047
X6.4665Y-3.5079
X6.4665Y-3.622
X6.5059Y-2.0906
X6.5059Y-2.2047
X6.5059Y-3.5079
X6.5059Y-3.622
X7.0571Y-1.4272
X7.0571Y-1.4665
X7.0571Y-1.5059
X7.0571Y-2.8445
X7.0571Y-2.8839
X7.0571Y-2.9232
X7.0571Y-4.2618
X7.0571Y-4.3012
X7.0571Y-4.3406
X7.1161Y-1.4272
X7.1161Y-1.4665
X7.1161Y-1.5059
X7.1161Y-2.8445
X7.1161Y-2.8839
X7.1161Y-2.9232
X7.1161Y-4.2618
X7.1161Y-4.3012
X7.1161Y-4.3406
X7.6673Y-2.0906
X7.6673Y-2.2047
X7.6673Y-3.5079
X7.6673Y-3.622
X7.7067Y-2.0906
X7.7067Y-2.2047
X7.7067Y-3.5079
X7.7067Y-3.622
X7.7461Y-2.0906
X7.7461Y-2.2047
X7.7461Y-3.5079
X7.7461Y-3.622
T2
X3.7894Y-1.9685
X3.7894Y-2.0669
X3.7894Y-3.3858
X3.7894Y-3.4843
X3.7894Y-4.8031
X3.7894Y-4.9016
X3.9862Y-1.7717
X3.9862Y-3.189
X3.9862Y-4.6063
X4.1831Y-1.9685
X4.1831Y-2.0669
X4.1831Y-3.3858
X4.1831Y-3.4843
X4.1831Y-4.8031
X4.1831Y-4.9016
X5.0295Y-1.9685
X5.0295Y-2.0669
X5.0295Y-3.3858
X5.0295Y-3.4843
X5.0295Y-4.8031
X5.0295Y-4.9016
X5.2264Y-1.7717
X5.2264Y-3.189
X5.2264Y-4.6063
X5.4232Y-1.9685
X5.4232Y-2.0669
X5.4232Y-3.3858
X5.4232Y-3.4843
X5.4232Y-4.8031
X5.4232Y-4.9016
X6.2697Y-1.9685
X6.2697Y-2.0669
X6.2697Y-3.3858
X6.2697Y-3.4843
X6.2697Y-4.8031
X6.2697Y-4.9016
X6.4665Y-1.7717
X6.4665Y-3.189
X6.4665Y-4.6063
X6.6634Y-1.9685
X6.6634Y-2.0669
X6.6634Y-3.3858
X6.6634Y-3.4843
X6.6634Y-4.8031
X6.6634Y-4.9016
X7.5098Y-1.9685
X7.5098Y-2.0669
X7.5098Y-3.3858
X7.5098Y-3.4843
X7.5098Y-4.8031
X7.5098Y-4.9016
X7.7067Y-1.7717
X7.7067Y-3.189
X7.7067Y-4.6063
X7.9035Y-1.9685
X7.9035Y-2.0669
X7.9035Y-3.3858
X7.9035Y-3.4843
X7.9035Y-4.8031
X7.9035Y-4.9016
T3
X3.7862Y-1.1811
X3.7862Y-2.5984
X3.7862Y-4.0157
X4.1862Y-1.1811
X4.1862Y-2.5984
X4.1862Y-4.0157
X5.0264Y-1.1811
X5.0264Y-2.5984
X5.0264Y-4.0157
X5.4264Y-1.1811
X5.4264Y-2.5984
X5.4264Y-4.0157
X6.2665Y-1.1811
X6.2665Y-2.5984
X6.2665Y-4.0157
X6.6665Y-1.1811
X6.6665Y-2.5984
X6.6665Y-4.0157
X7.5067Y-1.1811
X7.5067Y-2.5984
X7.5067Y-4.0157
X7.9067Y-1.1811
X7.9067Y-2.5984
X7.9067Y-4.0157
T4
X3.5177Y-0.9055
X3.5177Y-2.3228
X3.5177Y-3.7402
X4.4547Y-0.9055
X4.4547Y-2.3228
X4.4547Y-3.7402
X4.7579Y-0.9055
X4.7579Y-2.3228
X4.7579Y-3.7402
X5.6949Y-0.9055
X5.6949Y-2.3228
X5.6949Y-3.7402
X5.998Y-0.9055
X5.998Y-2.3228
X5.998Y-3.7402
X6.935Y-0.9055
X6.935Y-2.3228
X6.935Y-3.7402
X7.2382Y-0.9055
X7.2382Y-2.3228
X7.2382Y-3.7402
X8.1752Y-0.9055
X8.1752Y-2.3228
X8.1752Y-3.7402
T5
X3.5177Y-1.5055
X3.5177Y-2.9228
X3.5177Y-4.3402
X3.518Y-1.9746
X3.518Y-3.392
X3.518Y-4.8093
X3.9862Y-1.1811
X3.9862Y-2.5984
X3.9862Y-4.0157
X4.4547Y-1.5055
X4.4547Y-2.9228
X4.4547Y-4.3402
X4.455Y-1.9746
X4.455Y-3.392
X4.455Y-4.8093
X4.7579Y-1.5055
X4.7579Y-2.9228
X4.7579Y-4.3402
X4.7581Y-1.9746
X4.7581Y-3.392
X4.7581Y-4.8093
X5.2264Y-1.1811
X5.2264Y-2.5984
X5.2264Y-4.0157
X5.6949Y-1.5055
X5.6949Y-2.9228
X5.6949Y-4.3402
X5.6951Y-1.9746
X5.6951Y-3.392
X5.6951Y-4.8093
X5.998Y-1.5055
X5.998Y-2.9228
X5.998Y-4.3402
X5.9983Y-1.9746
X5.9983Y-3.392
X5.9983Y-4.8093
X6.4665Y-1.1811
X6.4665Y-2.5984
X6.4665Y-4.0157
X6.935Y-1.5055
X6.935Y-2.9228
X6.935Y-4.3402
X6.9353Y-1.9746
X6.9353Y-3.392
X6.9353Y-4.8093
X7.2382Y-1.5055
X7.2382Y-2.9228
X7.2382Y-4.3402
X7.2384Y-1.9746
X7.2384Y-3.392
X7.2384Y-4.8093
X7.7067Y-1.1811
X7.7067Y-2.5984
X7.7067Y-4.0157
X8.1752Y-1.5055
X8.1752Y-2.9228
X8.1752Y-4.3402
X8.1754Y-1.9746
X8.1754Y-3.392
X8.1754Y-4.8093
M30
