M48
; DRILL file {KiCad 8.0.2} date 2024-06-10T13:17:14+0100
; FORMAT={-:-/ absolute / inch / decimal}
; #@! TF.CreationDate,2024-06-10T13:17:14+01:00
; #@! TF.GenerationSoftware,Kicad,Pcbnew,8.0.2
; #@! TF.FileFunction,Plated,1,2,PTH
FMAT,2
INCH
; #@! TA.AperFunction,Plated,PTH,ComponentDrill
T1C0.0157
; #@! TA.AperFunction,Plated,PTH,ComponentDrill
T2C0.0591
%
G90
G05
T2
X3.8362Y-1.0811
X3.8362Y-2.4984
X3.8362Y-3.9157
X3.8866Y-0.9811
X3.8866Y-2.3984
X3.8866Y-3.8157
X4.0862Y-0.9811
X4.0862Y-2.3984
X4.0862Y-3.8157
X4.1366Y-1.0811
X4.1366Y-2.4984
X4.1366Y-3.9157
X5.0764Y-1.0811
X5.0764Y-2.4984
X5.0764Y-3.9157
X5.1268Y-0.9811
X5.1268Y-2.3984
X5.1268Y-3.8157
X5.3264Y-0.9811
X5.3264Y-2.3984
X5.3264Y-3.8157
X5.3768Y-1.0811
X5.3768Y-2.4984
X5.3768Y-3.9157
X6.3165Y-1.0811
X6.3165Y-2.4984
X6.3165Y-3.9157
X6.3669Y-0.9811
X6.3669Y-2.3984
X6.3669Y-3.8157
X6.5665Y-0.9811
X6.5665Y-2.3984
X6.5665Y-3.8157
X6.6169Y-1.0811
X6.6169Y-2.4984
X6.6169Y-3.9157
X7.5567Y-1.0811
X7.5567Y-2.4984
X7.5567Y-3.9157
X7.6071Y-0.9811
X7.6071Y-2.3984
X7.6071Y-3.8157
X7.8067Y-0.9811
X7.8067Y-2.3984
X7.8067Y-3.8157
X7.8571Y-1.0811
X7.8571Y-2.4984
X7.8571Y-3.9157
T1
G00X3.7894Y-1.752
M15
G01X3.7894Y-1.7913
M16
G05
G00X3.7894Y-3.1693
M15
G01X3.7894Y-3.2087
M16
G05
G00X3.7894Y-4.5866
M15
G01X3.7894Y-4.626
M16
G05
G00X3.8878Y-1.752
M15
G01X3.8878Y-1.7913
M16
G05
G00X3.8878Y-3.1693
M15
G01X3.8878Y-3.2087
M16
G05
G00X3.8878Y-4.5866
M15
G01X3.8878Y-4.626
M16
G05
G00X3.9665Y-1.9685
M15
G01X4.0059Y-1.9685
M16
G05
G00X3.9665Y-3.3858
M15
G01X4.0059Y-3.3858
M16
G05
G00X3.9665Y-4.8031
M15
G01X4.0059Y-4.8031
M16
G05
G00X4.0846Y-1.7913
M15
G01X4.0846Y-1.752
M16
G05
G00X4.0846Y-3.2087
M15
G01X4.0846Y-3.1693
M16
G05
G00X4.0846Y-4.626
M15
G01X4.0846Y-4.5866
M16
G05
G00X4.1831Y-1.7913
M15
G01X4.1831Y-1.752
M16
G05
G00X4.1831Y-3.2087
M15
G01X4.1831Y-3.1693
M16
G05
G00X4.1831Y-4.626
M15
G01X4.1831Y-4.5866
M16
G05
G00X5.0295Y-1.752
M15
G01X5.0295Y-1.7913
M16
G05
G00X5.0295Y-3.1693
M15
G01X5.0295Y-3.2087
M16
G05
G00X5.0295Y-4.5866
M15
G01X5.0295Y-4.626
M16
G05
G00X5.128Y-1.752
M15
G01X5.128Y-1.7913
M16
G05
G00X5.128Y-3.1693
M15
G01X5.128Y-3.2087
M16
G05
G00X5.128Y-4.5866
M15
G01X5.128Y-4.626
M16
G05
G00X5.2067Y-1.9685
M15
G01X5.2461Y-1.9685
M16
G05
G00X5.2067Y-3.3858
M15
G01X5.2461Y-3.3858
M16
G05
G00X5.2067Y-4.8031
M15
G01X5.2461Y-4.8031
M16
G05
G00X5.3248Y-1.7913
M15
G01X5.3248Y-1.752
M16
G05
G00X5.3248Y-3.2087
M15
G01X5.3248Y-3.1693
M16
G05
G00X5.3248Y-4.626
M15
G01X5.3248Y-4.5866
M16
G05
G00X5.4232Y-1.7913
M15
G01X5.4232Y-1.752
M16
G05
G00X5.4232Y-3.2087
M15
G01X5.4232Y-3.1693
M16
G05
G00X5.4232Y-4.626
M15
G01X5.4232Y-4.5866
M16
G05
G00X6.2697Y-1.752
M15
G01X6.2697Y-1.7913
M16
G05
G00X6.2697Y-3.1693
M15
G01X6.2697Y-3.2087
M16
G05
G00X6.2697Y-4.5866
M15
G01X6.2697Y-4.626
M16
G05
G00X6.3681Y-1.752
M15
G01X6.3681Y-1.7913
M16
G05
G00X6.3681Y-3.1693
M15
G01X6.3681Y-3.2087
M16
G05
G00X6.3681Y-4.5866
M15
G01X6.3681Y-4.626
M16
G05
G00X6.4469Y-1.9685
M15
G01X6.4862Y-1.9685
M16
G05
G00X6.4469Y-3.3858
M15
G01X6.4862Y-3.3858
M16
G05
G00X6.4469Y-4.8031
M15
G01X6.4862Y-4.8031
M16
G05
G00X6.565Y-1.7913
M15
G01X6.565Y-1.752
M16
G05
G00X6.565Y-3.2087
M15
G01X6.565Y-3.1693
M16
G05
G00X6.565Y-4.626
M15
G01X6.565Y-4.5866
M16
G05
G00X6.6634Y-1.7913
M15
G01X6.6634Y-1.752
M16
G05
G00X6.6634Y-3.2087
M15
G01X6.6634Y-3.1693
M16
G05
G00X6.6634Y-4.626
M15
G01X6.6634Y-4.5866
M16
G05
G00X7.5098Y-1.752
M15
G01X7.5098Y-1.7913
M16
G05
G00X7.5098Y-3.1693
M15
G01X7.5098Y-3.2087
M16
G05
G00X7.5098Y-4.5866
M15
G01X7.5098Y-4.626
M16
G05
G00X7.6083Y-1.752
M15
G01X7.6083Y-1.7913
M16
G05
G00X7.6083Y-3.1693
M15
G01X7.6083Y-3.2087
M16
G05
G00X7.6083Y-4.5866
M15
G01X7.6083Y-4.626
M16
G05
G00X7.687Y-1.9685
M15
G01X7.7264Y-1.9685
M16
G05
G00X7.687Y-3.3858
M15
G01X7.7264Y-3.3858
M16
G05
G00X7.687Y-4.8031
M15
G01X7.7264Y-4.8031
M16
G05
G00X7.8051Y-1.7913
M15
G01X7.8051Y-1.752
M16
G05
G00X7.8051Y-3.2087
M15
G01X7.8051Y-3.1693
M16
G05
G00X7.8051Y-4.626
M15
G01X7.8051Y-4.5866
M16
G05
G00X7.9035Y-1.7913
M15
G01X7.9035Y-1.752
M16
G05
G00X7.9035Y-3.2087
M15
G01X7.9035Y-3.1693
M16
G05
G00X7.9035Y-4.626
M15
G01X7.9035Y-4.5866
M16
G05
M30
